<svg width="140" height="117" viewBox="0 0 140 117" fill="none" xmlns="http://www.w3.org/2000/svg">
<path d="M93.6949 4.0799H84.3653V16.4337H93.6949V4.0799Z" fill="#02033D"/>
<path d="M100.485 3.48074C100.485 4.40389 100.118 5.28923 99.4655 5.942C98.8127 6.59476 97.9274 6.96148 97.0042 6.96148H81.027C80.1088 6.95396 79.2308 6.58392 78.5842 5.93196C77.9376 5.28001 77.5748 4.39897 77.5748 3.48074C77.5748 2.56251 77.9376 1.68147 78.5842 1.02952C79.2308 0.377566 80.1088 0.00752646 81.027 0L97.0042 0C97.9274 0 98.8127 0.36672 99.4655 1.01949C100.118 1.67225 100.485 2.55759 100.485 3.48074Z" fill="#02033D"/>
<path d="M89.0158 14.8074C80.3217 14.8124 71.7734 17.0406 64.1831 21.2802C56.5928 25.5198 50.2127 31.6299 45.6491 39.03H54.5222C60.3613 31.501 68.5034 26.0892 77.706 23.6205C86.9085 21.1519 96.6661 21.7619 105.489 25.3575C114.313 28.9532 121.718 35.3369 126.573 43.5346C131.429 51.7322 133.47 61.2935 132.383 70.7593C131.297 80.225 127.143 89.0754 120.556 95.9597C113.969 102.844 105.311 107.384 95.9024 108.887C86.4938 110.39 76.8517 108.774 68.4478 104.284C60.0439 99.7948 53.3396 92.679 49.3581 84.0228H41.4551C44.7822 92.6909 50.4144 100.285 57.7433 105.985C65.0721 111.686 73.8192 115.275 83.0395 116.366C92.2598 117.457 101.603 116.008 110.06 112.176C118.517 108.343 125.766 102.273 131.024 94.6208C136.282 86.9686 139.349 78.0252 139.895 68.7565C140.44 59.4879 138.443 50.2465 134.118 42.0303C129.794 33.8142 123.307 26.9358 115.358 22.138C107.409 17.3402 98.3004 14.8054 89.0158 14.8074Z" fill="#02033D"/>
<path d="M56.5192 56.0913C56.523 56.5396 56.438 56.9841 56.269 57.3993C56.1001 57.8146 55.8506 58.1922 55.5349 58.5105C55.2193 58.8288 54.8438 59.0814 54.43 59.2539C54.0162 59.4263 53.5723 59.515 53.1241 59.515H17.7746C17.3178 59.5264 16.8634 59.4463 16.4381 59.2794C16.0128 59.1124 15.6252 58.8621 15.2981 58.543C14.9711 58.2239 14.7112 57.8426 14.5339 57.4216C14.3565 57.0005 14.2652 56.5482 14.2653 56.0913C14.2653 55.643 14.354 55.1992 14.5264 54.7854C14.6988 54.3716 14.9515 53.9961 15.2698 53.6804C15.5881 53.3648 15.9657 53.1153 16.381 52.9464C16.7962 52.7774 17.2407 52.6924 17.689 52.6962H53.1241C54.0245 52.6962 54.8881 53.0539 55.5248 53.6906C56.1615 54.3273 56.5192 55.1909 56.5192 56.0913Z" fill="#F24823"/>
<path d="M58.5449 44.3652C58.5449 45.2656 58.1872 46.1292 57.5505 46.7659C56.9137 47.4026 56.0502 47.7603 55.1497 47.7603H32.3252C31.4247 47.7603 30.5612 47.4026 29.9245 46.7659C29.2877 46.1292 28.93 45.2656 28.93 44.3652C28.9263 43.9169 29.0113 43.4723 29.1803 43.0571C29.3492 42.6419 29.5987 42.2642 29.9143 41.946C30.23 41.6277 30.6055 41.375 31.0193 41.2026C31.4331 41.0302 31.8769 40.9415 32.3252 40.9415H55.1497C55.598 40.9415 56.0418 41.0302 56.4556 41.2026C56.8694 41.375 57.245 41.6277 57.5606 41.946C57.8762 42.2642 58.1257 42.6419 58.2947 43.0571C58.4636 43.4723 58.5486 43.9169 58.5449 44.3652Z" fill="#F24823"/>
<path d="M16.12 66.6762C16.12 67.1245 16.0313 67.5683 15.8589 67.9821C15.6865 68.3959 15.4338 68.7714 15.1156 69.0871C14.7973 69.4027 14.4196 69.6522 14.0044 69.8211C13.5892 69.9901 13.1446 70.0751 12.6964 70.0713H12.3255C11.8772 70.0751 11.4326 69.9901 11.0174 69.8211C10.6022 69.6522 10.2246 69.4027 9.90625 69.0871C9.58796 68.7714 9.33532 68.3959 9.16291 67.9821C8.99051 67.5683 8.90176 67.1245 8.90177 66.6762C8.90177 65.7682 9.26248 64.8973 9.90454 64.2553C10.5466 63.6132 11.4174 63.2525 12.3255 63.2525H12.6964C13.146 63.2525 13.5912 63.3411 14.0065 63.5131C14.4219 63.6852 14.7993 63.9374 15.1173 64.2553C15.4352 64.5732 15.6874 64.9506 15.8594 65.366C16.0315 65.7814 16.12 66.2266 16.12 66.6762Z" fill="#F24823"/>
<path d="M40.371 66.6762C40.3715 67.5572 40.0295 68.4039 39.4172 69.0374C38.805 69.671 37.9705 70.0417 37.09 70.0713H28.5308C28.0825 70.0751 27.6379 69.9901 27.2227 69.8211C26.8075 69.6522 26.4298 69.4027 26.1116 69.0871C25.7933 68.7714 25.5406 68.3959 25.3682 67.9821C25.1958 67.5683 25.1071 67.1245 25.1071 66.6762C25.1071 65.7682 25.4678 64.8973 26.1098 64.2553C26.7519 63.6132 27.6227 63.2525 28.5308 63.2525H37.09C37.998 63.2525 38.8688 63.6132 39.5109 64.2553C40.1529 64.8973 40.5136 65.7682 40.5136 66.6762H40.371Z" fill="#F24823"/>
<path d="M21.9973 44.3652C21.9973 45.2656 21.6396 46.1292 21.0029 46.7659C20.3662 47.4026 19.5026 47.7603 18.6022 47.7603H10.043C9.14252 47.7603 8.27895 47.4026 7.64223 46.7659C7.00552 46.1292 6.64782 45.2656 6.64782 44.3652C6.64405 43.9169 6.72909 43.4723 6.89802 43.0571C7.06696 42.6419 7.31645 42.2642 7.63209 41.946C7.94773 41.6277 8.32329 41.375 8.73708 41.2026C9.15087 41.0302 9.5947 40.9415 10.043 40.9415H18.6022C19.0504 40.9415 19.4943 41.0302 19.9081 41.2026C20.3218 41.375 20.6974 41.6277 21.013 41.946C21.3287 42.2642 21.5782 42.6419 21.7471 43.0571C21.916 43.4723 22.0011 43.9169 21.9973 44.3652Z" fill="#F24823"/>
<path d="M47.5894 76.719C47.5894 77.6194 47.2317 78.483 46.5949 79.1197C45.9582 79.7564 45.0947 80.1141 44.1942 80.1141H19.9717C19.0712 80.1141 18.2076 79.7564 17.5709 79.1197C16.9342 78.483 16.5765 77.6194 16.5765 76.719C16.5727 76.2707 16.6578 75.8262 16.8267 75.4109C16.9957 74.9957 17.2451 74.6181 17.5608 74.2998C17.8764 73.9815 18.252 73.7288 18.6658 73.5564C19.0796 73.384 19.5234 73.2953 19.9717 73.2953H44.1372C44.5854 73.2953 45.0293 73.384 45.443 73.5564C45.8568 73.7288 46.2324 73.9815 46.548 74.2998C46.8637 74.6181 47.1132 74.9957 47.2821 75.4109C47.451 75.8262 47.5361 76.2707 47.5323 76.719H47.5894Z" fill="#F24823"/>
<path d="M11.7546 76.719C11.7546 77.6194 11.3969 78.483 10.7602 79.1197C10.1235 79.7564 9.25994 80.1141 8.35949 80.1141H3.42368C2.97543 80.1179 2.53087 80.0329 2.11565 79.8639C1.70043 79.695 1.32278 79.4455 1.00448 79.1298C0.686185 78.8142 0.433546 78.4387 0.261142 78.0249C0.0887387 77.6111 -1.58257e-05 77.1672 2.11659e-09 76.719H2.11659e-09C2.11659e-09 75.811 0.360708 74.9401 1.00277 74.2981C1.64484 73.656 2.51566 73.2953 3.42368 73.2953H8.35949C8.80775 73.2953 9.25159 73.384 9.66538 73.5564C10.0792 73.7288 10.4547 73.9815 10.7704 74.2998C11.086 74.6181 11.3355 74.9957 11.5044 75.4109C11.6734 75.8262 11.7584 76.2707 11.7546 76.719Z" fill="#F24823"/>
<path d="M115.007 44.2796C114.673 43.968 114.281 43.7258 113.852 43.567C113.424 43.4082 112.968 43.336 112.512 43.3545C112.055 43.3731 111.607 43.4821 111.193 43.6752C110.779 43.8683 110.407 44.1416 110.1 44.4794L88.1313 68.1598L74.6648 53.8945C74.033 53.2286 73.1625 52.841 72.2449 52.8169C71.3273 52.7928 70.4377 53.1343 69.7718 53.7661C69.1059 54.3979 68.7183 55.2684 68.6942 56.186C68.6701 57.1036 69.0116 57.9932 69.6434 58.6591L85.592 75.6348L85.8488 75.8631H86.02L86.4194 76.0913H86.6477H87.0186H87.3039H87.6462H88.4451H88.816H89.0728L89.4722 75.9487H89.6719L90.0713 75.7204H90.2425L90.5278 75.4922L115.007 49.0728C115.615 48.4227 115.953 47.5661 115.953 46.6762C115.953 45.7863 115.615 44.9297 115.007 44.2796Z" fill="#02033D"/>
</svg>
