<svg width="156" height="154" viewBox="0 0 156 154" fill="none" xmlns="http://www.w3.org/2000/svg">
<path d="M77.5473 101.596C87.9918 101.596 96.491 93.2423 96.491 82.9733C96.491 72.7043 87.983 64.3508 77.5473 64.3508C67.1117 64.3508 58.6036 72.7043 58.6036 82.9733C58.6036 93.2423 67.0939 101.596 77.5473 101.596ZM77.5473 69.0208C85.4018 69.0208 91.7917 75.2804 91.7917 82.9733C91.7917 90.6663 85.3929 96.9259 77.5473 96.9259C69.7017 96.9259 63.303 90.6663 63.303 82.9733C63.303 75.2804 69.684 69.0208 77.5473 69.0208Z" fill="#02033D"/>
<path d="M64.309 28.8563L61.9914 42.287C61.9162 42.7165 61.9636 43.1584 62.1284 43.5625C62.2931 43.9666 62.5685 44.3166 62.9234 44.573C63.2783 44.8293 63.6984 44.9817 64.136 45.0127C64.5736 45.0438 65.0112 44.9523 65.3991 44.7486L77.5474 38.4031L89.6891 44.7398C90.0772 44.9405 90.514 45.0295 90.9503 44.9967C91.3865 44.964 91.8049 44.8108 92.1582 44.5544C92.5116 44.2981 92.7858 43.9487 92.9501 43.5458C93.1144 43.1428 93.1621 42.7023 93.0879 42.2738L90.7704 28.8431L100.59 19.3513C100.904 19.0467 101.125 18.6611 101.23 18.2381C101.335 17.8151 101.318 17.3714 101.183 16.957C101.047 16.5427 100.798 16.1742 100.463 15.8931C100.128 15.612 99.721 15.4295 99.2873 15.3661L85.7165 13.4087L79.6456 1.19556C78.8547 -0.398519 76.2225 -0.398519 75.4359 1.19556L69.3606 13.4087L55.7876 15.3661C55.3539 15.4295 54.9466 15.612 54.6117 15.8931C54.2768 16.1742 54.0275 16.5427 53.8921 16.957C53.7566 17.3714 53.7404 17.8151 53.8451 18.2381C53.9498 18.6611 54.1714 19.0467 54.4849 19.3513L64.309 28.8563ZM71.2594 17.8475C71.637 17.7935 71.9956 17.649 72.3044 17.4265C72.6132 17.2041 72.8629 16.9102 73.032 16.5705L77.5474 7.5014L82.0585 16.5771C82.2275 16.9168 82.4772 17.2107 82.786 17.4331C83.0948 17.6556 83.4534 17.8001 83.831 17.8541L93.9099 19.3072L86.616 26.3683C86.3432 26.6327 86.1391 26.959 86.0214 27.3192C85.9037 27.6793 85.8759 28.0625 85.9403 28.4357L87.6618 38.4053L78.642 33.698C78.3048 33.523 77.93 33.4316 77.5496 33.4316C77.1693 33.4316 76.7945 33.523 76.4573 33.698L67.4375 38.4053L69.159 28.4357C69.2248 28.0634 69.1987 27.6808 69.083 27.3207C68.9672 26.9605 68.7652 26.6337 68.4943 26.3683L61.1783 19.3072L71.2594 17.8475Z" fill="#F24823"/>
<path d="M38.3771 57.6223C38.7318 57.3659 39.0072 57.0159 39.1721 56.612C39.3369 56.2081 39.3846 55.7663 39.3098 55.3369L36.9923 41.9061L46.8142 32.4011C47.1284 32.097 47.3508 31.7116 47.4561 31.2885C47.5615 30.8654 47.5456 30.4214 47.4103 30.0068C47.275 29.5922 47.0256 29.2235 46.6905 28.9424C46.3553 28.6612 45.9477 28.4789 45.5136 28.4159L31.9384 26.4586L25.8698 14.2542C25.675 13.865 25.3748 13.5375 25.003 13.3086C24.6311 13.0797 24.2024 12.9584 23.7649 12.9584C23.3275 12.9584 22.8988 13.0797 22.5269 13.3086C22.1551 13.5375 21.8549 13.865 21.6601 14.2542L15.5892 26.4674L2.0118 28.4247C1.57778 28.4877 1.17014 28.67 0.834972 28.9512C0.4998 29.2323 0.250464 29.601 0.115155 30.0156C-0.0201538 30.4303 -0.0360385 30.8742 0.0692969 31.2973C0.174632 31.7204 0.396986 32.1058 0.711219 32.4099L10.5331 41.9149L8.21115 55.3457C8.13679 55.775 8.18482 56.2164 8.34982 56.62C8.51481 57.0236 8.79018 57.3732 9.14477 57.6294C9.49935 57.8855 9.919 58.0379 10.3562 58.0694C10.7935 58.1008 11.2308 58.01 11.6188 57.8072L23.7627 51.4684L35.9044 57.8072C36.2928 58.0089 36.7303 58.0985 37.1673 58.0659C37.6044 58.0332 38.0234 57.8795 38.3771 57.6223ZM24.8617 46.7566C24.5247 46.5809 24.1499 46.4891 23.7694 46.4891C23.3888 46.4891 23.014 46.5809 22.6771 46.7566L13.6483 51.464L15.3721 41.4944C15.4366 41.121 15.4086 40.7375 15.2905 40.3773C15.1723 40.0171 14.9676 39.6909 14.6941 39.4269L7.40244 32.3659L17.4814 30.9127C17.859 30.8591 18.2178 30.7148 18.5267 30.4922C18.8356 30.2697 19.0852 29.9757 19.2539 29.6357L23.7649 20.5622L28.2738 29.6335C28.442 29.974 28.6915 30.2686 29.0004 30.4915C29.3093 30.7145 29.6683 30.859 30.0463 30.9127L40.1274 32.3659L32.8358 39.4269C32.5622 39.6909 32.3575 40.0171 32.2394 40.3773C32.1213 40.7375 32.0932 41.121 32.1578 41.4944L33.8793 51.464L24.8617 46.7566Z" fill="#F24823"/>
<path d="M154.962 30.0144C154.826 29.5998 154.577 29.2311 154.242 28.9501C153.907 28.6691 153.499 28.4871 153.065 28.4247L139.492 26.4674L133.421 14.2542C132.632 12.6601 129.998 12.6601 129.211 14.2542L123.143 26.4674L109.563 28.4247C109.129 28.4877 108.721 28.67 108.386 28.9512C108.051 29.2323 107.802 29.6011 107.666 30.0157C107.531 30.4303 107.515 30.8742 107.621 31.2973C107.726 31.7205 107.948 32.1058 108.263 32.4099L118.093 41.9149L115.776 55.3457C115.7 55.7752 115.748 56.2171 115.913 56.6211C116.077 57.0252 116.353 57.3753 116.708 57.6316C117.063 57.888 117.483 58.0403 117.92 58.0714C118.358 58.1024 118.795 58.0109 119.183 57.8072L131.323 51.4684L143.467 57.8072C143.855 58.01 144.292 58.1008 144.729 58.0694C145.167 58.0379 145.586 57.8855 145.941 57.6294C146.295 57.3732 146.571 57.0236 146.736 56.62C146.901 56.2164 146.949 55.775 146.874 55.3457L144.555 41.9149L154.374 32.4099C154.688 32.1051 154.909 31.719 155.013 31.2956C155.116 30.8722 155.099 30.4283 154.962 30.0144ZM140.383 39.4269C140.109 39.6908 139.904 40.017 139.787 40.3774C139.669 40.7377 139.641 41.1212 139.707 41.4944L141.428 51.464L132.406 46.7566C132.07 46.5802 131.695 46.488 131.314 46.488C130.933 46.488 130.558 46.5802 130.222 46.7566L121.195 51.464L122.917 41.4944C122.981 41.121 122.953 40.7376 122.835 40.3773C122.717 40.0171 122.512 39.6909 122.239 39.4269L114.954 32.3659L125.037 30.9127C125.415 30.8594 125.774 30.715 126.083 30.492C126.392 30.269 126.642 29.9743 126.81 29.6335L131.318 20.5623L135.818 29.6357C135.987 29.9755 136.237 30.2693 136.546 30.4918C136.855 30.7143 137.213 30.8587 137.591 30.9127L147.67 32.3659L140.383 39.4269Z" fill="#F24823"/>
<path d="M121.672 99.218C120.947 99.218 120.234 99.2708 119.523 99.3236C120.055 96.6545 120.324 93.9401 120.327 91.219C120.327 67.8407 101.131 48.8218 77.5385 48.8218C53.9464 48.8218 34.7501 67.8407 34.7501 91.219C34.7501 114.597 53.8688 133.616 77.5474 133.616C83.3279 133.626 89.0499 132.466 94.3641 130.206C96.1476 143.612 107.704 154 121.681 154C136.891 154 149.265 141.712 149.265 126.608C149.265 111.504 136.882 99.218 121.672 99.218ZM77.5474 53.5028C98.5494 53.5028 115.636 70.4277 115.636 91.23C115.639 94.2531 115.267 97.2651 114.529 100.198C109.321 101.597 104.641 104.482 101.066 108.496C96.6749 104.793 91.0949 102.773 85.3353 102.802H69.7372C65.3596 102.809 61.0635 103.98 57.2943 106.192C53.5251 108.405 50.42 111.579 48.3009 115.385C42.5622 108.626 39.4219 100.063 39.4384 91.219C39.4495 70.4167 56.5365 53.5028 77.5474 53.5028ZM51.8105 118.979C53.377 115.556 55.8986 112.652 59.0761 110.61C62.2535 108.569 65.9536 107.476 69.7372 107.461H85.3154C90.0637 107.436 94.6576 109.136 98.2326 112.241C95.8006 116.138 94.4012 120.582 94.1646 125.161C87.2966 128.477 79.5831 129.66 72.0286 128.557C64.4742 127.455 57.4289 124.117 51.8105 118.979ZM121.672 149.33C117.151 149.326 112.732 147.99 108.975 145.492C105.217 142.993 102.29 139.443 100.562 135.291C98.834 131.139 98.3837 126.571 99.2676 122.165C100.152 117.759 102.33 113.712 105.528 110.536C108.726 107.36 112.8 105.198 117.234 104.322C121.669 103.446 126.265 103.896 130.442 105.615C134.619 107.335 138.189 110.246 140.702 113.981C143.214 117.717 144.556 122.108 144.557 126.601C144.549 132.629 142.135 138.408 137.845 142.669C133.554 146.93 127.738 149.326 121.672 149.33Z" fill="#02033D"/>
<path d="M134.864 116.548L117.683 131.579L111.156 123.803C110.958 123.567 110.716 123.373 110.443 123.231C110.169 123.089 109.871 123.001 109.563 122.974C109.256 122.946 108.946 122.979 108.652 123.071C108.357 123.162 108.084 123.31 107.847 123.507C107.61 123.703 107.415 123.944 107.272 124.216C107.128 124.487 107.04 124.784 107.013 125.09C106.985 125.395 107.018 125.703 107.11 125.995C107.202 126.288 107.351 126.56 107.549 126.795L115.623 136.412C115.823 136.652 116.07 136.85 116.349 136.994C116.628 137.137 116.933 137.223 117.246 137.247C117.559 137.271 117.874 137.233 118.172 137.133C118.47 137.034 118.744 136.877 118.98 136.67L137.972 120.051C138.222 119.854 138.429 119.609 138.58 119.33C138.731 119.051 138.824 118.745 138.852 118.429C138.881 118.114 138.844 117.796 138.745 117.495C138.646 117.194 138.486 116.916 138.276 116.678C138.065 116.44 137.808 116.247 137.52 116.111C137.232 115.975 136.919 115.899 136.601 115.887C136.282 115.875 135.965 115.927 135.667 116.041C135.37 116.154 135.098 116.327 134.87 116.548H134.864Z" fill="#02033D"/>
</svg>
