<svg width="145" height="121" viewBox="0 0 145 121" fill="none" xmlns="http://www.w3.org/2000/svg">
<path d="M35.5754 82.9377H26.8457C24.6572 82.9351 22.559 82.0646 21.0114 80.517C19.4639 78.9695 18.5933 76.8713 18.5908 74.6827V46.1984C18.5925 44.0093 19.4626 41.9103 21.0103 40.362C22.5579 38.8138 24.6566 37.9428 26.8457 37.9402H141.261C142.253 37.9402 143.204 38.3341 143.905 39.0353C144.606 39.7365 145 40.6875 145 41.6791C145 42.6708 144.606 43.6218 143.905 44.323C143.204 45.0242 142.253 45.4181 141.261 45.4181H26.8457C26.6393 45.419 26.4417 45.5015 26.2961 45.6478C26.1504 45.794 26.0687 45.992 26.0687 46.1984V74.6827C26.0687 74.8888 26.1505 75.0865 26.2963 75.2322C26.442 75.3779 26.6396 75.4598 26.8457 75.4598H35.5754C36.567 75.4598 37.518 75.8537 38.2192 76.5549C38.9204 77.2561 39.3143 78.2071 39.3143 79.1988C39.3143 80.1904 38.9204 81.1414 38.2192 81.8426C37.518 82.5438 36.567 82.9377 35.5754 82.9377Z" fill="#02033D"/>
<path d="M141.261 82.9378H57.814C56.8224 82.9378 55.8714 82.5438 55.1702 81.8427C54.469 81.1415 54.0751 80.1904 54.0751 79.1988C54.0751 78.2072 54.469 77.2561 55.1702 76.555C55.8714 75.8538 56.8224 75.4598 57.814 75.4598H141.261C142.253 75.4598 143.204 75.8538 143.905 76.555C144.606 77.2561 145 78.2072 145 79.1988C145 80.1904 144.606 81.1415 143.905 81.8427C143.204 82.5438 142.253 82.9378 141.261 82.9378Z" fill="#02033D"/>
<path d="M138.852 82.9378C134.365 82.9378 131.858 78.6071 130.545 74.9754C129.121 71.0349 128.337 65.8719 128.337 60.439C128.337 55.0061 129.121 49.8431 130.545 45.9058C131.845 42.2709 134.365 37.9402 138.852 37.9402C139.815 37.936 140.742 38.3035 141.441 38.966C142.139 39.6286 142.556 40.5351 142.603 41.4969C142.65 42.4586 142.324 43.4014 141.693 44.1288C141.062 44.8563 140.175 45.3123 139.216 45.4019C138.12 46.3773 135.815 51.5793 135.815 60.439C135.815 69.2987 138.12 74.517 139.216 75.4761C140.208 75.5244 141.139 75.9646 141.806 76.7C142.474 77.4353 142.821 78.4055 142.773 79.3971C142.725 80.3888 142.284 81.3206 141.549 81.9876C140.814 82.6547 139.843 83.0023 138.852 82.954V82.9378Z" fill="#02033D"/>
<path d="M118.154 44.9999H3.73896C2.74732 44.9999 1.79631 44.606 1.09512 43.9048C0.393925 43.2036 0 42.2526 0 41.2609C0 40.2693 0.393925 39.3183 1.09512 38.6171C1.79631 37.9159 2.74732 37.522 3.73896 37.522H118.154C118.36 37.522 118.558 37.4401 118.704 37.2944C118.849 37.1487 118.931 36.951 118.931 36.7449V8.26058C118.931 8.05449 118.849 7.85685 118.704 7.71112C118.558 7.5654 118.36 7.48353 118.154 7.48353H3.73896C2.74732 7.48353 1.79631 7.0896 1.09512 6.38841C0.393925 5.68722 0 4.7362 0 3.74457C0 2.75294 0.393925 1.80192 1.09512 1.10073C1.79631 0.39954 2.74732 0.00561523 3.73896 0.00561523L118.154 0.00561523C120.343 0.00819659 122.441 0.878743 123.989 2.42629C125.536 3.97384 126.407 6.07202 126.409 8.26058V36.7449C126.407 38.9335 125.536 41.0317 123.989 42.5792C122.441 44.1268 120.343 44.9973 118.154 44.9999Z" fill="#02033D"/>
<path d="M6.14814 44.9987C5.19101 44.9944 4.27198 44.6232 3.58037 43.9615C2.88876 43.2998 2.47723 42.3981 2.43056 41.4421C2.38388 40.4861 2.70561 39.5486 3.32948 38.8227C3.95335 38.0969 4.83184 37.6379 5.784 37.5403C6.87968 36.5649 9.18482 31.3629 9.18482 22.5032C9.18482 13.6435 6.87968 8.42196 5.784 7.48235C4.79237 7.43406 3.86053 6.99382 3.19349 6.25849C2.52644 5.52315 2.17883 4.55295 2.22711 3.56132C2.2754 2.56969 2.71564 1.63785 3.45097 0.970806C4.18631 0.303761 5.15651 -0.0438534 6.14814 0.00443478C10.6381 0.00443478 13.1416 4.33512 14.4551 7.96679C15.8792 11.9073 16.6627 17.0703 16.6627 22.5032C16.6627 27.9361 15.8792 33.0958 14.4551 37.0364C13.1416 40.6713 10.6381 44.9987 6.14814 44.9987Z" fill="#02033D"/>
<path d="M118.154 120.454H3.73896C2.74732 120.454 1.79631 120.06 1.09512 119.359C0.393925 118.658 0 117.707 0 116.715C0 115.724 0.393925 114.773 1.09512 114.071C1.79631 113.37 2.74732 112.976 3.73896 112.976H118.154C118.36 112.976 118.558 112.894 118.704 112.749C118.849 112.603 118.931 112.405 118.931 112.199V83.7148C118.931 83.5087 118.849 83.3111 118.704 83.1653C118.558 83.0196 118.36 82.9378 118.154 82.9378H57.814C56.8224 82.9378 55.8714 82.5438 55.1702 81.8426C54.469 81.1414 54.0751 80.1904 54.0751 79.1988C54.0751 78.2072 54.469 77.2561 55.1702 76.555C55.8714 75.8538 56.8224 75.4598 57.814 75.4598H118.154C120.343 75.4624 122.441 76.333 123.989 77.8805C125.536 79.4281 126.407 81.5262 126.409 83.7148V112.199C126.407 114.388 125.536 116.486 123.989 118.033C122.441 119.581 120.343 120.452 118.154 120.454Z" fill="#02033D"/>
<path d="M35.5754 82.9378H3.73896C2.74732 82.9378 1.79631 82.5438 1.09512 81.8427C0.393925 81.1415 0 80.1904 0 79.1988C0 78.2072 0.393925 77.2561 1.09512 76.555C1.79631 75.8538 2.74732 75.4598 3.73896 75.4598H35.5754C36.567 75.4598 37.518 75.8538 38.2192 76.555C38.9204 77.2561 39.3143 78.2072 39.3143 79.1988C39.3143 80.1904 38.9204 81.1415 38.2192 81.8427C37.518 82.5438 36.567 82.9378 35.5754 82.9378Z" fill="#02033D"/>
<path d="M6.14815 120.454C5.19101 120.45 4.27199 120.079 3.58038 119.417C2.88876 118.755 2.47724 117.854 2.43056 116.898C2.38389 115.942 2.70562 115.004 3.32949 114.278C3.95335 113.552 4.83185 113.093 5.784 112.996C6.87968 112.037 9.18483 106.818 9.18483 97.9586C9.18483 89.0989 6.87968 83.8872 5.784 82.9118C4.83185 82.8142 3.95335 82.3552 3.32949 81.6293C2.70562 80.9035 2.38389 79.966 2.43056 79.01C2.47724 78.054 2.88876 77.1523 3.58038 76.4906C4.27199 75.8289 5.19101 75.4577 6.14815 75.4534C10.6381 75.4534 13.1416 79.7841 14.4551 83.4157C15.8792 87.3563 16.6627 92.5193 16.6627 97.9521C16.6627 103.385 15.8792 108.545 14.4551 112.485C13.1416 116.123 10.6381 120.454 6.14815 120.454Z" fill="#02033D"/>
<path d="M57.814 97.0255C56.9366 97.0264 56.087 96.7179 55.4146 96.1542L46.9483 89.0892L37.8935 96.242C37.3426 96.6757 36.6808 96.946 35.9837 97.0219C35.2866 97.0978 34.5822 96.9763 33.9508 96.6713C33.3193 96.3663 32.7863 95.89 32.4125 95.2967C32.0387 94.7034 31.8391 94.017 31.8364 93.3158V57.7567C31.8364 56.7651 32.2303 55.8141 32.9315 55.1129C33.6327 54.4117 34.5837 54.0178 35.5754 54.0178H57.814C58.8057 54.0178 59.7567 54.4117 60.4579 55.1129C61.1591 55.8141 61.553 56.7651 61.553 57.7567V93.2866C61.5534 93.7777 61.457 94.2641 61.2693 94.7179C61.0815 95.1717 60.8061 95.5841 60.4588 95.9314C60.1116 96.2786 59.6992 96.554 59.2454 96.7418C58.7916 96.9295 58.3052 97.0259 57.814 97.0255ZM39.3143 61.4957V85.5713L44.7017 81.3186C45.3761 80.7862 46.2134 80.5023 47.0726 80.5147C47.9318 80.5272 48.7605 80.8352 49.4193 81.3869L54.0751 85.2884V61.4957H39.3143Z" fill="#F24823"/>
</svg>
