<svg width="145" height="150" viewBox="0 0 145 150" fill="none" xmlns="http://www.w3.org/2000/svg">
<g clip-path="url(#clip0)">
<path d="M144.734 58.5781C143.373 43.6475 136.852 29.6578 126.291 19.0155C115.731 8.37311 101.793 1.74329 86.8731 0.266406C74.1653 -0.916376 61.3953 1.74661 50.2194 7.90996C39.0436 14.0733 29.9775 23.4526 24.1972 34.8314C24.1672 34.9016 24.133 34.9701 24.0948 35.0362L0.28657 90.1517C0.0524517 90.6973 -0.0424862 91.2926 0.0102808 91.884C0.0630479 92.4755 0.261868 93.0445 0.58889 93.5402C0.915911 94.0358 1.3609 94.4424 1.88389 94.7236C2.40689 95.0047 2.99152 95.1516 3.5853 95.151H17.19V109.268C17.1954 114.266 19.1831 119.057 22.717 122.591C26.2509 126.125 31.0422 128.112 36.0399 128.118H45.3214V146.558C45.3214 147.509 45.6992 148.421 46.3716 149.093C47.044 149.766 47.956 150.143 48.907 150.143C49.8579 150.143 50.7699 149.766 51.4424 149.093C52.1148 148.421 52.4926 147.509 52.4926 146.558V124.43C52.4818 123.486 52.0992 122.584 51.428 121.921C50.7567 121.257 49.8509 120.885 48.907 120.885H36.0399C32.9442 120.88 29.9768 119.648 27.7878 117.459C25.5987 115.27 24.3666 112.302 24.3612 109.206V91.463C24.3612 90.512 23.9834 89.6 23.311 88.9276C22.6385 88.2552 21.7265 87.8774 20.7756 87.8774H9.03537L30.7332 37.9457C35.8712 27.8887 43.9057 19.6026 53.7996 14.1571C63.6934 8.71161 74.9925 6.35677 86.2379 7.39658C98.0734 8.50786 109.263 13.3008 118.233 21.1016C127.203 28.9023 133.502 39.3183 136.245 50.8851C138.988 62.4518 138.037 74.5873 133.525 85.5853C129.013 96.5832 121.167 105.89 111.091 112.198C110.578 112.52 110.154 112.967 109.86 113.497C109.566 114.028 109.412 114.624 109.411 115.23V146.414C109.411 147.365 109.789 148.277 110.461 148.95C111.134 149.622 112.046 150 112.997 150C113.948 150 114.86 149.622 115.532 148.95C116.204 148.277 116.582 147.365 116.582 146.414V117.177C126.08 110.813 133.701 102.023 138.651 91.7175C143.602 81.4125 145.702 69.9696 144.734 58.5781Z" fill="#02033D"/>
<path d="M99.433 90.1517C102.868 90.2828 106.258 89.3305 109.122 87.4295C111.986 85.5286 114.18 82.7752 115.394 79.5588C116.25 79.477 117.099 79.3332 117.935 79.1286C120.278 78.5903 122.465 77.5166 124.324 75.9916C126.183 74.4666 127.664 72.5318 128.65 70.3388C129.388 68.5747 129.751 66.6765 129.715 64.7647C129.68 62.853 129.248 60.9694 128.445 59.2338C128.198 58.6911 127.918 58.1642 127.605 57.6561C128.65 55.7045 129.304 53.5679 129.531 51.366C129.759 48.9131 129.471 46.4397 128.688 44.1042C127.905 41.7686 126.643 39.6222 124.983 37.8023C121.823 34.2681 117.523 31.955 112.833 31.2663C112.361 30.4554 111.82 29.6876 111.214 28.9715C109.082 26.5049 106.284 24.7058 103.155 23.7899C100.026 22.8741 96.6987 22.8805 93.5731 23.8083C90.227 21.4452 86.2558 20.1262 82.1608 20.0178C77.7668 19.669 73.379 20.7623 69.6625 23.1321C67.4407 22.5227 65.112 22.4106 62.8419 22.8037C60.5719 23.1968 58.4165 24.0854 56.529 25.4064C53.2615 27.4843 50.731 30.5381 49.2964 34.1347C46.5789 34.5153 44.0004 35.5721 41.7974 37.2081C39.4962 38.9768 37.5817 41.1983 36.1722 43.7355C34.7626 46.2727 33.8879 49.0718 33.6018 51.9602C33.2384 54.5014 33.4673 57.0922 34.2705 59.5303C35.0738 61.9685 36.4297 64.188 38.2323 66.0156C42.5145 70.3183 49.5218 72.736 57.451 72.736C58.373 72.736 59.3155 72.736 60.258 72.5926C60.258 72.8589 60.4424 73.1253 60.5653 73.3917C63.106 78.6573 69.2732 81.7102 78.2883 82.3658L89.0041 97.5892C89.2337 97.921 89.5397 98.1928 89.8962 98.3818C90.2528 98.5708 90.6495 98.6713 91.053 98.6751C91.5824 98.6796 92.0994 98.5144 92.5282 98.2038C93.0818 97.8121 93.4574 97.2167 93.5726 96.5484C93.6879 95.8801 93.5333 95.1933 93.1429 94.6388L84.558 82.4478C85.6849 82.4478 86.8118 82.3453 88.0001 82.2429C88.0704 82.5172 88.1808 82.7796 88.3279 83.0215L97.9168 97.2614C98.1005 97.5504 98.3403 97.7997 98.622 97.9945C98.9037 98.1892 99.2217 98.3255 99.557 98.3952C99.8923 98.4649 100.238 98.4667 100.574 98.4004C100.91 98.3341 101.23 98.2011 101.513 98.0092C101.797 97.8173 102.039 97.5705 102.226 97.2833C102.413 96.9962 102.54 96.6745 102.6 96.3373C102.66 96.0001 102.652 95.6543 102.576 95.3203C102.5 94.9864 102.358 94.671 102.158 94.3929L99.433 90.1517ZM65.2573 71.1788C64.5334 69.6518 64.2442 67.9548 64.4213 66.2742C64.5984 64.5935 65.235 62.9941 66.2613 61.6515C68.4331 58.8854 72.0187 57.8815 76.3624 58.8035C78.1856 59.2133 80.0706 59.2689 81.9149 58.9674C83.8667 61.2759 86.2198 63.2126 88.8607 64.6838C87.5155 65.85 85.8933 66.6509 84.1496 67.0096C82.4059 67.3684 80.5993 67.2731 78.903 66.7327C78.2618 66.5072 77.5573 66.5457 76.9444 66.8396C76.3315 67.1336 75.8605 67.6589 75.635 68.3001C75.4095 68.9414 75.4479 69.6459 75.7419 70.2588C76.0358 70.8716 76.5612 71.3426 77.2024 71.5681C78.7854 72.1439 80.4559 72.442 82.1403 72.4492C84.5386 72.3171 86.8859 71.7051 89.0434 70.6492C91.2008 69.5934 93.1243 68.1153 94.7 66.3025C95.1508 66.3025 95.5606 66.3025 96.0113 66.3025C98.834 66.2927 101.624 65.6998 104.207 64.5609C104.384 64.571 104.562 64.571 104.74 64.5609C104.74 64.5609 111.255 64.0282 112.157 67.8391C112.278 68.4142 112.592 68.9306 113.046 69.3032C113.501 69.6757 114.069 69.882 114.656 69.888H115.251C115.577 69.8087 115.886 69.6658 116.157 69.4674C116.429 69.269 116.659 69.019 116.834 68.7316C117.009 68.4443 117.126 68.1253 117.177 67.7929C117.229 67.4605 117.215 67.1211 117.135 66.7942C116.721 65.1346 115.844 63.6265 114.608 62.4444C113.371 61.2623 111.825 60.4546 110.149 60.1148C110.906 59.1975 111.54 58.1849 112.034 57.1029C112.22 56.7913 112.339 56.4435 112.381 56.0827C112.423 55.7218 112.388 55.3562 112.278 55.01C112.167 54.6638 111.985 54.345 111.742 54.0747C111.499 53.8045 111.202 53.589 110.869 53.4425C110.537 53.2961 110.177 53.222 109.814 53.2253C109.451 53.2286 109.092 53.3091 108.762 53.4615C108.433 53.6139 108.139 53.8347 107.901 54.1093C107.663 54.3838 107.487 54.7059 107.383 55.054C105.129 60.0123 98.9208 61.9178 93.9419 61.2007C91.2819 60.557 88.8765 59.1294 87.0371 57.1029C88.4072 56.1701 89.5832 54.9802 90.4998 53.5993C91.861 51.5253 92.5742 49.0932 92.5487 46.6125C94.5633 46.4055 96.4744 45.6175 98.0495 44.3444C99.6245 43.0713 100.796 41.3679 101.42 39.4414C101.602 38.7866 101.517 38.0863 101.183 37.4945C100.848 36.9028 100.293 36.4681 99.6379 36.2861C98.9831 36.104 98.2828 36.1896 97.691 36.5239C97.0993 36.8581 96.6646 37.4138 96.4826 38.0686C95.6835 40.9166 92.3848 41.5108 91.3193 41.6337C91.1055 41.2056 90.8589 40.7946 90.5817 40.4044C90.1869 39.854 89.59 39.4825 88.9219 39.3711C88.2537 39.2598 87.5687 39.4176 87.0167 39.8102C86.7397 40.0021 86.504 40.2477 86.3236 40.5323C86.1432 40.8169 86.0217 41.1348 85.9663 41.4672C85.9109 41.7996 85.9228 42.1397 86.0011 42.4674C86.0795 42.7952 86.2227 43.1039 86.4225 43.3753C87.128 44.4924 87.4853 45.7942 87.4488 47.115C87.4123 48.4357 86.9837 49.7158 86.2176 50.7923C85.2753 52.186 83.9121 53.242 82.327 53.806C80.742 54.3699 79.0182 54.4124 77.4073 53.9271C74.8324 53.2269 72.1158 53.2382 69.5469 53.9598C66.9779 54.6815 64.6528 56.0864 62.8191 58.0249C62.8191 58.0249 62.6962 58.0249 62.6347 58.0249C62.5733 58.0249 55.3202 58.3322 53.2713 53.5378C52.9863 52.9363 52.4783 52.4693 51.8549 52.2359C51.2316 52.0025 50.5418 52.0209 49.9318 52.2873C49.3218 52.5537 48.8395 53.0471 48.587 53.6629C48.3346 54.2788 48.3318 54.9688 48.5793 55.5867C51.0175 61.0368 56.5085 62.4505 60.0121 62.7988C59.4858 64.3491 59.2226 65.9766 59.2336 67.6138C51.9395 68.003 45.5674 66.1385 41.9204 62.471C40.6593 61.1854 39.7156 59.6232 39.1643 57.9088C38.613 56.1944 38.4693 54.375 38.7446 52.5953C38.9577 50.4143 39.6126 48.2995 40.6693 46.3798C41.726 44.4601 43.1625 42.7755 44.8913 41.4288C46.2301 40.4288 47.7682 39.7284 49.4014 39.3749C51.0346 39.0214 52.7247 39.0231 54.3572 39.3799C54.4596 39.3799 64.6017 41.4288 64.1919 47.1248C64.1485 47.4698 64.1758 47.82 64.2722 48.1542C64.3686 48.4883 64.532 48.7993 64.7525 49.0682C64.973 49.3371 65.2459 49.5583 65.5547 49.7183C65.8634 49.8783 66.2015 49.9737 66.5484 49.9988C66.8952 50.0239 67.2435 49.978 67.5721 49.8641C67.9006 49.7502 68.2025 49.5705 68.4594 49.3361C68.7163 49.1017 68.9227 48.8175 69.0661 48.5007C69.2096 48.1839 69.287 47.8412 69.2937 47.4936C69.3512 46.6508 69.303 45.8042 69.1502 44.9734C71.3781 44.7885 73.5085 43.9789 75.2969 42.6377C76.241 41.869 77.0159 40.9134 77.573 39.8309C78.1301 38.7485 78.4573 37.5625 78.5342 36.3475C78.5971 35.9991 78.587 35.6415 78.5047 35.2972C78.4224 34.9528 78.2696 34.6293 78.0559 34.347C77.8423 34.0648 77.5724 33.8298 77.2634 33.6571C76.9544 33.4844 76.6129 33.3776 76.2605 33.3435C75.9081 33.3094 75.5525 33.3487 75.2161 33.459C74.8797 33.5692 74.5698 33.7481 74.3059 33.9841C74.0421 34.2202 73.8301 34.5084 73.6833 34.8306C73.5365 35.1527 73.458 35.5018 73.4529 35.8558C73.4339 36.3888 73.3038 36.912 73.0709 37.3918C72.8381 37.8716 72.5076 38.2975 72.1007 38.6423C70.4618 39.6641 68.5321 40.1178 66.6096 39.9331C63.493 36.9742 59.5603 35.0186 55.3202 34.3191H54.9923C56.0854 32.4454 57.6008 30.8528 59.418 29.6681C61.1721 28.4208 63.2503 27.7091 65.4008 27.6192C65.3219 28.0542 65.3579 28.5023 65.5052 28.9191C65.6525 29.3359 65.9061 29.7071 66.2408 29.9959C66.7622 30.4277 67.4322 30.6375 68.1067 30.58C68.7812 30.5225 69.4061 30.2024 69.8469 29.6886C71.3659 28.0313 73.2533 26.7542 75.3567 25.9606C77.4601 25.1669 79.7206 24.8788 81.9559 25.1196C84.1401 25.2268 86.2891 25.7121 88.3075 26.5538C86.7293 27.7355 85.3937 29.2103 84.3736 30.8975C84.0285 31.4843 83.9307 32.1842 84.1017 32.8432C84.2727 33.5022 84.6985 34.0663 85.2853 34.4113C85.8722 34.7564 86.5721 34.8542 87.2311 34.6832C87.8901 34.5122 88.4541 34.0864 88.7992 33.4996C89.9369 31.6644 91.5806 30.197 93.5325 29.2737C95.4844 28.3505 97.6614 28.0108 99.8018 28.2954C102.742 28.6091 105.452 30.0303 107.383 32.2702C108.276 33.2965 108.95 34.4951 109.362 35.7919C109.775 37.0887 109.917 38.4563 109.78 39.8102C109.78 39.8102 108.592 46.9199 102.24 48.2721C101.673 48.4456 101.183 48.8107 100.855 49.305C100.527 49.7993 100.381 50.3922 100.441 50.9823C100.502 51.5725 100.765 52.1234 101.187 52.5409C101.608 52.9584 102.161 53.2166 102.752 53.2715C102.929 53.2918 103.108 53.2918 103.285 53.2715C113.202 51.2226 114.759 40.9781 114.841 40.4453C114.964 39.2876 114.964 38.12 114.841 36.9622C117.294 37.7935 119.49 39.2479 121.213 41.1829C122.407 42.4777 123.313 44.0109 123.871 45.6814C124.429 47.3519 124.626 49.1218 124.45 50.8742C124.365 51.738 124.187 52.5899 123.917 53.4149C122.531 52.3085 120.965 51.449 119.287 50.8742C118.964 50.7403 118.617 50.6739 118.267 50.6793C117.917 50.6846 117.572 50.7615 117.253 50.9053C116.934 51.0491 116.648 51.2567 116.413 51.5152C116.177 51.7738 115.997 52.0778 115.884 52.4087C115.77 52.7395 115.725 53.0901 115.753 53.4388C115.78 53.7876 115.878 54.127 116.041 54.4363C116.205 54.7456 116.43 55.0182 116.702 55.2371C116.975 55.4561 117.29 55.6169 117.627 55.7096C118.982 56.1799 120.226 56.9223 121.283 57.8913C122.34 58.8603 123.188 60.0353 123.774 61.3441C124.282 62.4419 124.558 63.6333 124.582 64.8429C124.607 66.0526 124.381 67.2542 123.917 68.3718C123.257 69.8273 122.27 71.1111 121.034 72.1237C119.797 73.1364 118.344 73.8507 116.787 74.2112C114.198 74.7187 111.526 74.6124 108.986 73.9008C106.445 73.1892 104.107 71.892 102.158 70.1134C101.897 69.9009 101.597 69.7418 101.274 69.6453C100.952 69.5488 100.613 69.5167 100.279 69.551C99.9438 69.5852 99.6189 69.6851 99.3227 69.8449C99.0264 70.0047 98.7645 70.2212 98.552 70.4822C98.3394 70.7432 98.1803 71.0435 98.0838 71.366C97.9873 71.6885 97.9553 72.0268 97.9895 72.3616C98.0238 72.6965 98.1236 73.0213 98.2834 73.3176C98.4432 73.6138 98.6598 73.8757 98.9208 74.0883C99.4945 74.5595 100.068 74.9898 100.662 75.3996C100.444 75.3791 100.225 75.3791 100.007 75.3996C81.9559 79.1286 68.2897 77.5099 65.2573 71.1788ZM100.97 80.3169C101.305 80.2557 101.625 80.1281 101.91 79.9417C102.195 79.7553 102.441 79.5138 102.631 79.2314C102.822 78.949 102.955 78.6313 103.021 78.297C103.088 77.9627 103.087 77.6185 103.019 77.2846C102.966 77.0497 102.868 76.8271 102.732 76.6289C104.982 77.9515 107.442 78.88 110.005 79.3744C108.53 82.0585 104.74 86.2178 95.8474 84.7426L93.7985 81.6077C95.9908 81.2594 98.3471 80.8497 100.97 80.3169Z" fill="#F24823"/>
</g>
<defs>
<clipPath id="clip0">
<rect width="144.96" height="150" fill="white"/>
</clipPath>
</defs>
</svg>
