<svg width="56" height="55" viewBox="0 0 56 55" fill="none" xmlns="http://www.w3.org/2000/svg">
<path d="M1.72387 32.9179C3.36566 34.5597 6.1567 34.5597 7.79849 32.9179L33.2463 7.47016C34.888 5.82837 34.888 3.03732 33.2463 1.39553C31.6045 -0.246263 28.8134 -0.246263 27.1716 1.39553L1.72387 26.8433C0.0820754 28.4851 0.0820754 31.2761 1.72387 32.9179Z" fill="#F24823"/>
<path d="M1.23134 12.7239C2.87313 14.3657 5.66418 14.3657 7.30597 12.7239L12.7239 7.30597C14.3657 5.66418 14.3657 2.87313 12.7239 1.23134C11.0821 -0.410448 8.29104 -0.410448 6.64925 1.23134L1.23134 6.64926C-0.410448 8.29105 -0.410448 11.0821 1.23134 12.7239Z" fill="#F24823"/>
<path d="M42.2761 53.7687C43.9179 55.4105 46.7089 55.4105 48.3507 53.7687L53.7686 48.3508C55.4104 46.709 55.4104 43.9179 53.7686 42.2761C52.1269 40.6344 49.3358 40.6344 47.694 42.2761L42.2761 47.5299C40.4701 49.3358 40.4701 51.9627 42.2761 53.7687Z" fill="#F24823"/>
<path d="M22.2462 53.6044C23.888 55.2462 26.679 55.2462 28.3208 53.6044L53.7686 28.1567C55.4104 26.5149 55.4104 23.7238 53.7686 22.0821C52.1268 20.4403 49.3358 20.4403 47.694 22.0821L22.2462 47.5298C20.6044 49.1716 20.6044 51.9627 22.2462 53.6044Z" fill="#F24823"/>
<path d="M53.9328 1.23131C52.9478 0.24624 51.6343 -0.0821162 50.3209 0.0820629H42.7687C40.4701 0.0820629 38.6642 1.88803 38.6642 4.18654C38.6642 5.82833 39.6492 7.30594 41.1269 7.96266L2.05224 47.2015C0.410445 48.8433 0.410445 51.6343 2.05224 53.2761C3.69403 54.9179 6.48507 54.9179 8.12686 53.2761L47.5298 13.8731C48.1866 15.1865 49.5 16.0074 51.1418 16.0074C53.4403 16.0074 55.2463 14.2015 55.2463 11.903V5.17162C55.4104 3.694 55.0821 2.21639 53.9328 1.23131Z" fill="#F24823"/>
</svg>
