<svg width="27" height="18" viewBox="0 0 27 18" fill="none" xmlns="http://www.w3.org/2000/svg">
<path fill-rule="evenodd" clip-rule="evenodd" d="M1.30616 0.917105C1.8638 0.513741 2.55874 0.268066 3.31728 0.268066H23.2211C23.9797 0.268066 24.6746 0.513741 25.2322 0.917105L13.8083 11.0952C13.5516 11.3238 12.9868 11.3238 12.7301 11.0952L1.30616 0.917105ZM0 3.41463C0 2.84904 0.162216 2.31861 0.435397 1.86087L0.435463 1.86103L8.92568 9.43313L0.580595 15.8252L0.549412 15.8447C0.205242 15.3485 0 14.7548 0 14.1139V3.41463ZM26.103 1.86103L17.6128 9.43313L25.9579 15.8252L25.9891 15.8447C26.3332 15.3485 26.5385 14.7548 26.5385 14.1139V3.41463C26.5385 2.84904 26.3763 2.31861 26.1031 1.86087L26.103 1.86103ZM1.49277 16.7396L9.90009 10.2984L11.8179 12.0095C12.6298 12.7327 13.9087 12.7327 14.7205 12.0095L16.6383 10.2984L25.0457 16.7396C24.5226 17.0661 23.8967 17.2608 23.2211 17.2608H3.31729C2.64168 17.2608 2.01584 17.0661 1.49277 16.7396Z" fill="#374CFF"/>
</svg>
