<svg width="16" height="24" viewBox="0 0 16 24" fill="none" xmlns="http://www.w3.org/2000/svg">
<path d="M7.79554 0C5.72885 0.00226962 3.74745 0.824214 2.28602 2.28552C0.824585 3.74682 0.00245909 5.72814 0 7.79483C0 9.68011 1.33213 12.8561 4.07358 17.5092C4.41375 18.0867 4.74321 18.6298 5.05481 19.1358C6.14395 20.8989 7.00155 22.1646 7.01012 22.1767L7.43892 22.8149C7.47803 22.8739 7.53113 22.9222 7.59348 22.9557C7.65583 22.9892 7.72549 23.0067 7.79625 23.0067C7.86701 23.0067 7.93667 22.9892 7.99902 22.9557C8.06137 22.9222 8.11447 22.8739 8.15358 22.8149L8.60168 22.1538C8.87539 21.7479 9.85162 20.2807 10.9686 18.4326C11.6233 17.3527 12.1921 16.3686 12.7088 15.4231L12.7882 15.2752C14.6463 11.8534 15.5918 9.33707 15.5918 7.79769C15.5903 5.73032 14.7684 3.74805 13.3067 2.28607C11.845 0.824086 9.8629 0.00189281 7.79554 0V0ZM7.79554 12.2479C6.96032 12.2478 6.1439 11.9999 5.44952 11.5358C4.75514 11.0717 4.21398 10.412 3.89449 9.64034C3.575 8.86865 3.49151 8.01954 3.65459 7.20039C3.81768 6.38125 4.22 5.62886 4.81069 5.03837C5.40138 4.44788 6.1539 4.04582 6.9731 3.88301C7.7923 3.72021 8.64137 3.80398 9.41296 4.12373C10.1845 4.44349 10.844 4.98487 11.3079 5.6794C11.7718 6.37394 12.0193 7.19045 12.0192 8.02567C12.0179 9.14531 11.5724 10.2187 10.7806 11.0103C9.98872 11.8019 8.91518 12.247 7.79554 12.2479Z" fill="#374CFF"/>
</svg>
