<svg width="412" height="166" viewBox="0 0 412 166" fill="none" xmlns="http://www.w3.org/2000/svg">
<path fill-rule="evenodd" clip-rule="evenodd" d="M150.174 44.5297C150.174 43.1416 151.3 42.0166 152.688 42.0166C154.078 42.0166 155.201 43.1416 155.201 44.5297C155.201 45.9166 154.078 47.0428 152.688 47.0428C151.3 47.0428 150.174 45.9166 150.174 44.5297ZM152.687 46.4378C153.746 46.4378 154.6 45.5833 154.6 44.5296C154.6 43.4722 153.746 42.6202 152.687 42.6202C151.634 42.6202 150.779 43.4722 150.779 44.5296C150.779 45.5833 151.634 46.4378 152.687 46.4378ZM152.349 45.6313H151.835V43.4243H152.768C152.962 43.4243 153.159 43.4268 153.331 43.535C153.51 43.6604 153.61 43.8681 153.61 44.087C153.61 44.339 153.467 44.5727 153.23 44.6587L153.634 45.6313H153.062L152.727 44.7571H152.349V45.6313ZM152.349 44.38H152.632C152.739 44.38 152.854 44.3898 152.947 44.3394C153.032 44.2841 153.076 44.1808 153.076 44.0824C153.076 44.0013 153.025 43.9029 152.952 43.8599C152.861 43.807 152.718 43.8181 152.622 43.8181H152.349V44.38Z" fill="#0161AB"/>
<path fill-rule="evenodd" clip-rule="evenodd" d="M137.765 47.2002H148.923L139.195 0.829712H129.428C124.916 0.829712 123.816 4.28376 123.816 4.28376L105.695 47.2002H118.36L120.892 40.3138H136.342L137.765 47.2002ZM124.395 30.7992L130.779 13.4422L134.372 30.7992H124.395Z" fill="#6979FF"/>
<path fill-rule="evenodd" clip-rule="evenodd" d="M106.643 11.9798L108.378 2.02159C108.378 2.02159 103.025 0 97.4487 0C91.4178 0 77.0971 2.61861 77.0971 15.3511C77.0971 27.3329 93.9067 27.4826 93.9067 33.77C93.9067 40.0614 78.8304 38.9383 73.8525 34.97L72.0478 45.3794C72.0478 45.3794 77.4719 48 85.7657 48C94.0555 48 106.569 43.7322 106.569 32.1248C106.569 20.0681 89.6091 18.9431 89.6091 13.7019C89.6091 8.45877 101.445 9.13263 106.643 11.9798Z" fill="#6979FF"/>
<path fill-rule="evenodd" clip-rule="evenodd" d="M64.5593 47.2002H52.4082L60.0019 0.829712H72.157L64.5593 47.2002Z" fill="#6979FF"/>
<path fill-rule="evenodd" clip-rule="evenodd" d="M30.6006 32.724L42.1845 0.829712H55.2637L35.9295 47.2002H23.2687L12.714 6.91419C5.99883 2.90769 0.242545 1.6648 0.0071888 1.61546C0.303525 1.67748 9.35252 3.62582 18.037 10.6086C26.4795 17.3985 29.2282 25.8573 29.2282 25.8573V25.8553L30.6006 32.724Z" fill="#6979FF"/>
<path opacity="0.7" fill-rule="evenodd" clip-rule="evenodd" d="M29.2285 25.8573L25.1391 5.00491C25.1391 5.00491 24.6473 0.829712 19.3759 0.829712H0.224102L0 1.61392C0.00198321 1.61392 9.20803 3.5094 18.0373 10.6086C26.4798 17.3985 29.2285 25.8573 29.2285 25.8573Z" fill="#374CFF"/>
<path d="M385.599 1C389.56 1 393.329 1.90751 396.711 3.53089C397.241 3.77017 397.775 4.05655 398.303 4.34319L395.985 6.39724L392.508 2.81528L386.518 8.06823L382.991 4.29485L371.976 14.0856L379.028 21.7747L376.275 24.162L383.232 31.8511L380.479 34.2375L390.432 45.1743L396.322 39.8251L401.445 45.5576C400.43 46.3218 399.319 47.0875 398.112 47.755C394.44 49.8083 390.188 51 385.648 51C371.685 51 360.334 39.7792 360.334 25.9785C360.284 12.2711 371.638 1 385.599 1ZM380.96 24.4492L386.999 19.1L392.411 25.0695L386.371 30.4182L380.96 24.4492ZM385.261 34.7651L391.251 29.3686L396.711 35.3377L390.671 40.6871L385.261 34.7651ZM376.663 14.2773L382.701 8.92814L388.111 14.8977L382.072 20.2466L376.663 14.2773ZM387.724 11.4109L392.217 7.39949L396.276 11.8411L391.783 15.8999L387.724 11.4109ZM395.745 29.7976L400.236 25.7859L404.295 30.2739L399.802 34.2881L395.745 29.7976ZM399.705 38.8247L404.199 34.8123L408.254 39.2536L403.763 43.3119L399.705 38.8247ZM401.542 18.1925L404.536 15.5178L407.241 18.4799L404.246 21.1536L401.542 18.1925ZM397.677 9.35734L400.672 6.63576L403.378 9.64398L400.381 12.3184L397.677 9.35734ZM405.358 27.0284L408.352 24.354L411.106 27.315L408.063 29.9888L405.358 27.0284ZM391.879 20.3899L396.373 16.3782L400.43 20.8189L395.938 24.8313L391.879 20.3899Z" fill="#6979FF"/>
<mask id="mask0" mask-type="alpha" maskUnits="userSpaceOnUse" x="193" y="11" width="27" height="24">
<path d="M193 11.3887V34.4726H219.405V11.3887H193Z" fill="white"/>
</mask>
<g mask="url(#mask0)">
<path d="M206.251 18.2241H206.024L201.746 34.4726H198.249L193 11.3887H196.628L200.257 28.6131H200.483L204.694 11.3887H207.579L212.082 28.6131H212.309L215.614 11.3887H219.405L214.155 34.4726H210.656L206.251 18.2241Z" fill="#6979FF"/>
</g>
<path d="M224.008 24.6454H231.426C231.265 21.2278 229.612 19.8616 227.863 19.8616C225.887 19.8616 224.363 21.3915 224.008 24.6454ZM234.017 30.7682V33.243C232.56 34.0893 230.617 34.7409 228.283 34.7409C222.841 34.7409 220.606 31.3549 220.606 26.2112C220.606 21.2603 223.1 17.6788 227.96 17.6788C232.008 17.6788 234.505 20.3178 234.505 25.6236V26.8284H223.943C223.943 30.7342 225.53 32.4602 228.868 32.4602C230.617 32.4602 232.237 31.8406 234.017 30.7682Z" fill="#6979FF"/>
<path d="M242.04 32.1303C243.077 32.586 244.212 32.6534 245.023 32.6534C247.42 32.6534 249.232 31.1536 249.232 25.8805C249.232 21.7456 247.742 20.4106 245.573 20.4106C244.276 20.4106 243.336 20.7699 242.04 21.4848V32.1303H242.04ZM242.074 19.0761C243.044 18.5569 244.696 17.8708 246.446 17.8708C250.464 17.8708 252.635 20.6707 252.635 25.8805C252.635 31.9693 249.718 34.9321 245.023 34.9321C243.305 34.9321 240.648 34.3785 238.703 33.3343V10.6109L242.074 9.7981V19.0761H242.074Z" fill="#6979FF"/>
<path d="M267.216 29.5746H267.379L274.31 11.3744H278.33V34.46H274.831V17.7238H274.539L267.929 34.46H265.857L259.246 18.1151H258.955V34.46H256.039V11.3744H259.96L267.216 29.5746Z" fill="#6979FF"/>
<path d="M292.625 26.2102C292.625 21.8152 290.845 19.9603 288.642 19.9603C286.504 19.9603 284.656 21.8153 284.656 26.2102C284.656 30.6712 286.343 32.4602 288.642 32.4602C290.941 32.4602 292.625 30.6712 292.625 26.2102ZM281.255 26.2102C281.255 20.5105 284.366 17.6788 288.642 17.6788C292.919 17.6788 296.029 20.5105 296.029 26.2102C296.029 31.7766 293.081 34.7409 288.642 34.7409C284.203 34.7409 281.255 31.7766 281.255 26.2102Z" fill="#6979FF"/>
<path d="M298.591 20.09C300.049 19.2095 303.128 17.6788 306.853 17.6788C310.74 17.6788 312.196 19.2095 312.196 22.5621V34.3499H308.829V23.3119C308.829 20.7403 307.567 20.2846 305.913 20.2846C304.619 20.2846 302.964 20.8715 301.961 21.4574V34.3499H298.591V20.09H298.591Z" fill="#6979FF"/>
<path d="M319.327 24.6454H326.746C326.586 21.2278 324.932 19.8616 323.182 19.8616C321.206 19.8616 319.685 21.3915 319.327 24.6454ZM329.337 30.7682V33.243C327.88 34.0893 325.936 34.7409 323.603 34.7409C318.163 34.7409 315.926 31.3549 315.926 26.2112C315.926 21.2603 318.42 17.6788 323.28 17.6788C327.331 17.6788 329.826 20.3178 329.826 25.6236V26.8284H319.264C319.264 30.7342 320.851 32.4602 324.188 32.4602C325.936 32.4602 327.558 31.8406 329.337 30.7682Z" fill="#6979FF"/>
<path d="M343.283 17.6788H346.75L340.886 33.9559C339.264 38.4493 337.29 40.7938 333.565 40.7938V38.1258C335.769 38.1258 337.128 36.3668 337.907 33.9559L331.686 17.6788H335.251L339.397 29.6601H339.592L343.283 17.6788Z" fill="#6979FF"/>
<path fill-rule="evenodd" clip-rule="evenodd" d="M324.531 122.501C324.531 143.212 307.848 160 287.267 160C266.685 160 250 143.212 250 122.501C250 101.79 266.685 85 287.267 85C307.848 85 324.531 101.79 324.531 122.501Z" fill="#6979FF"/>
<path fill-rule="evenodd" clip-rule="evenodd" d="M336.165 85C326.534 85 317.761 88.676 311.146 94.7066C309.801 95.9357 308.545 97.2631 307.386 98.6766H314.914C315.942 99.9365 316.891 101.261 317.755 102.648H304.543C303.754 103.923 303.035 105.248 302.397 106.62H319.902C320.5 107.905 321.027 109.229 321.48 110.59H300.819C300.388 111.884 300.026 113.208 299.736 114.559H322.561C323.107 117.12 323.398 119.776 323.398 122.501C323.398 126.664 322.724 130.671 321.48 134.413H300.819C301.271 135.774 301.798 137.099 302.396 138.386H319.902C319.262 139.755 318.547 141.081 317.752 142.357H304.543C305.406 143.74 306.356 145.066 307.386 146.325H314.912C313.755 147.739 312.498 149.067 311.148 150.296C317.762 156.326 326.534 160 336.165 160C356.745 160 373.43 143.212 373.43 122.501C373.43 101.791 356.745 85 336.165 85Z" fill="#6979FF"/>
<path fill-rule="evenodd" clip-rule="evenodd" d="M368.049 131.251C368.049 130.58 368.59 130.039 369.251 130.039C369.917 130.039 370.455 130.58 370.455 131.251C370.455 131.918 369.917 132.462 369.251 132.462C368.59 132.462 368.049 131.918 368.049 131.251ZM369.251 132.172C369.758 132.172 370.168 131.759 370.168 131.251C370.168 130.744 369.758 130.331 369.251 130.331C368.747 130.331 368.338 130.744 368.338 131.251C368.338 131.759 368.747 132.172 369.251 132.172ZM369.089 131.781H368.843V130.718H369.29C369.384 130.718 369.478 130.722 369.56 130.772C369.647 130.83 369.694 130.932 369.694 131.037C369.694 131.158 369.625 131.27 369.513 131.313L369.707 131.781H369.433L369.271 131.36H369.089V131.781ZM369.089 131.179H369.226C369.275 131.179 369.333 131.183 369.377 131.158C369.417 131.132 369.437 131.081 369.437 131.035C369.437 130.995 369.414 130.95 369.379 130.925C369.337 130.901 369.267 130.908 369.221 130.908H369.089V131.179Z" fill="#FFFFFE"/>
<path fill-rule="evenodd" clip-rule="evenodd" d="M364.237 114.039L363.338 119.534C362.234 118.07 361.045 117.009 359.477 117.009C357.435 117.009 355.577 118.566 354.361 120.86C352.666 120.506 350.916 119.904 350.916 119.904L350.914 119.919C351.049 118.637 351.106 117.858 351.093 117.591H347.376C346.871 122.38 345.97 127.229 345.268 132.019L345.082 133.06H349.131C349.676 129.49 350.094 126.522 350.403 124.172C351.786 122.914 352.479 121.819 353.874 121.89C353.255 123.396 352.894 125.13 352.894 126.909C352.894 130.775 354.837 133.327 357.779 133.327C359.262 133.327 360.399 132.812 361.509 131.62L361.318 133.059H365.146L368.227 114.039H364.237ZM359.177 129.487C357.801 129.487 357.104 128.459 357.104 126.437C357.104 123.396 358.407 121.241 360.242 121.241C361.632 121.241 362.385 122.305 362.385 124.27C362.385 127.337 361.06 129.487 359.177 129.487Z" fill="#8B97C4"/>
<path fill-rule="evenodd" clip-rule="evenodd" d="M340.98 126.518C340.558 126.469 340.37 126.455 340.079 126.455C337.787 126.455 336.626 127.245 336.626 128.808C336.626 129.77 337.193 130.386 338.076 130.386C339.723 130.386 340.912 128.807 340.98 126.518ZM343.925 133.409C343.386 133.409 340.573 133.409 340.573 133.409L340.649 131.807C339.626 133.072 338.262 133.677 336.41 133.677C334.216 133.677 332.715 131.953 332.715 129.451C332.715 125.683 335.327 123.489 339.816 123.489C340.275 123.489 340.862 123.531 341.463 123.609C341.588 123.097 341.622 122.88 341.622 122.602C341.622 121.58 340.919 121.199 339.028 121.199C337.05 121.175 335.419 121.671 334.746 121.892C334.789 121.636 335.307 118.414 335.307 118.414C337.323 117.819 338.652 117.594 340.148 117.594C343.622 117.594 345.463 119.165 345.459 122.131C345.467 122.925 345.336 123.909 345.132 125.196C344.781 127.434 344.028 132.242 343.925 133.409Z" fill="#8B97C4"/>
<path fill-rule="evenodd" clip-rule="evenodd" d="M330.308 118.157C331.432 118.157 332.481 118.451 333.924 119.184L334.586 115.056C333.991 114.821 331.906 113.446 330.139 113.446C327.433 113.446 325.141 114.799 323.533 117.028C321.185 116.246 320.218 117.827 319.036 119.403L317.985 119.65C318.064 119.131 318.137 118.616 318.114 118.094H314.396C313.89 122.883 312.991 127.732 312.286 132.523L312.103 133.564H316.15C316.825 129.146 317.194 126.319 317.42 124.403L318.944 123.554C319.173 122.7 319.884 122.413 321.313 122.448C321.127 123.456 321.026 124.519 321.026 125.618C321.026 130.68 323.743 133.831 328.096 133.831C329.218 133.831 330.182 133.683 331.673 133.274L332.382 128.939C331.041 129.602 329.943 129.915 328.946 129.915C326.594 129.915 325.171 128.167 325.171 125.28C325.171 121.091 327.287 118.157 330.308 118.157Z" fill="#8B97C4"/>
<path fill-rule="evenodd" clip-rule="evenodd" d="M310.711 133.052C309.33 133.477 307.994 133.679 306.584 133.677C302.081 133.674 299.736 131.307 299.736 126.777C299.736 121.488 302.72 117.594 306.771 117.594C310.09 117.594 312.206 119.774 312.206 123.195C312.206 124.329 312.059 125.435 311.712 126.998H303.703C303.431 129.242 304.859 130.179 307.198 130.179C308.636 130.179 309.936 129.879 311.381 129.203L310.711 133.052ZM308.451 123.878C308.473 123.555 308.877 121.117 306.579 121.117C305.298 121.117 304.383 122.102 304.009 123.878H308.451Z" fill="#8B97C4"/>
<path fill-rule="evenodd" clip-rule="evenodd" d="M298.185 133.391C297.078 133.741 296.215 133.894 295.279 133.894C293.211 133.894 292.081 132.697 292.081 130.497C292.053 129.811 292.38 128.016 292.637 126.373C292.87 124.926 294.391 115.816 294.391 115.816H298.412L297.942 118.157H300.006L299.457 121.874H297.386C296.919 124.818 296.252 128.481 296.244 128.967C296.244 129.767 296.668 130.113 297.631 130.113C298.091 130.113 298.448 130.067 298.721 129.967L298.185 133.391Z" fill="#8B97C4"/>
<path fill-rule="evenodd" clip-rule="evenodd" d="M282.421 122.831C282.421 124.789 283.365 126.136 285.503 127.151C287.141 127.926 287.394 128.155 287.394 128.858C287.394 129.822 286.672 130.257 285.071 130.257C283.864 130.257 282.741 130.069 281.446 129.649C281.446 129.649 280.915 133.057 280.89 133.218C281.809 133.421 282.63 133.606 285.1 133.677C289.369 133.677 291.341 132.042 291.341 128.507C291.341 126.381 290.515 125.134 288.489 124.198C286.793 123.413 286.598 123.239 286.598 122.516C286.598 121.68 287.27 121.25 288.578 121.25C289.371 121.25 290.456 121.338 291.485 121.484L292.061 117.897C291.013 117.731 289.425 117.594 288.5 117.594C283.974 117.594 282.408 119.973 282.421 122.831Z" fill="#8B97C4"/>
<path fill-rule="evenodd" clip-rule="evenodd" d="M277.38 126.518C276.956 126.469 276.769 126.455 276.477 126.455C274.184 126.455 273.023 127.245 273.023 128.808C273.023 129.77 273.59 130.386 274.474 130.386C276.122 130.386 277.31 128.807 277.38 126.518ZM280.322 133.409C279.784 133.409 276.971 133.409 276.971 133.409L277.048 131.807C276.025 133.072 274.661 133.677 272.807 133.677C270.615 133.677 269.112 131.953 269.112 129.451C269.112 125.683 271.726 123.489 276.214 123.489C276.674 123.489 277.261 123.531 277.863 123.609C277.989 123.097 278.022 122.88 278.022 122.602C278.022 121.58 277.317 121.199 275.427 121.199C273.447 121.175 271.816 121.671 271.144 121.892C271.187 121.636 271.705 118.414 271.705 118.414C273.721 117.819 275.051 117.594 276.548 117.594C280.022 117.594 281.861 119.165 281.858 122.131C281.865 122.925 281.734 123.909 281.531 125.196C281.179 127.434 280.426 132.242 280.322 133.409Z" fill="#8B97C4"/>
<path fill-rule="evenodd" clip-rule="evenodd" d="M267.079 133.651H263.033L265.351 119.03L260.176 133.651H257.419L257.078 119.114L254.642 133.651H250.856L254.019 114.631H259.837L259.999 126.405L263.924 114.631H270.207L267.079 133.651Z" fill="#8B97C4"/>
<path fill-rule="evenodd" clip-rule="evenodd" d="M366.756 132.465H362.93L363.12 131.026C362.01 132.219 360.872 132.734 359.39 132.734C356.449 132.734 354.504 130.184 354.504 126.315C354.504 121.169 357.52 116.833 361.087 116.833C362.656 116.833 363.844 117.477 364.951 118.942L365.848 113.446H369.838L366.756 132.465ZM360.788 128.892C362.673 128.892 363.996 126.743 363.996 123.679C363.996 121.714 363.243 120.646 361.852 120.646C360.017 120.646 358.714 122.802 358.714 125.844C358.714 127.869 359.412 128.892 360.788 128.892Z" fill="#FFFFFE"/>
<path fill-rule="evenodd" clip-rule="evenodd" d="M348.553 116.575C348.047 121.363 347.148 126.212 346.444 131.002L346.26 132.043H350.306C351.753 122.584 352.102 120.738 354.373 120.968C354.734 119.032 355.406 117.337 355.908 116.482C354.214 116.126 353.267 117.09 352.027 118.921C352.126 118.129 352.304 117.36 352.271 116.575H348.553Z" fill="#FFFFFE"/>
<path fill-rule="evenodd" clip-rule="evenodd" d="M342.158 125.333C341.736 125.283 341.548 125.27 341.257 125.27C338.965 125.27 337.804 126.06 337.804 127.623C337.804 128.585 338.371 129.201 339.254 129.201C340.901 129.201 342.09 127.622 342.158 125.333ZM345.102 132.224C344.564 132.224 341.751 132.224 341.751 132.224L341.827 130.622C340.804 131.887 339.44 132.492 337.588 132.492C335.394 132.492 333.892 130.768 333.892 128.266C333.892 124.498 336.505 122.304 340.994 122.304C341.453 122.304 342.039 122.346 342.641 122.424C342.766 121.912 342.8 121.695 342.8 121.417C342.8 120.394 342.097 120.013 340.206 120.013C338.227 119.99 336.597 120.486 335.924 120.707C335.967 120.451 336.485 117.229 336.485 117.229C338.501 116.634 339.83 116.409 341.326 116.409C344.8 116.409 346.641 117.98 346.637 120.945C346.645 121.74 346.514 122.723 346.31 124.011C345.959 126.249 345.206 131.056 345.102 132.224Z" fill="#FFFFFE"/>
<path fill-rule="evenodd" clip-rule="evenodd" d="M335.673 113.841L335.01 117.969C333.566 117.238 332.519 116.942 331.396 116.942C328.375 116.942 326.257 119.88 326.257 124.07C326.257 126.956 327.681 128.7 330.033 128.7C331.029 128.7 332.13 128.39 333.469 127.725L332.758 132.059C331.269 132.468 330.305 132.617 329.183 132.617C324.827 132.617 322.114 129.465 322.114 124.405C322.114 117.605 325.865 112.853 331.226 112.853C332.993 112.853 335.079 113.606 335.673 113.841Z" fill="#FFFFFE"/>
<path fill-rule="evenodd" clip-rule="evenodd" d="M315.577 116.575C315.068 121.363 314.167 126.212 313.465 131.002L313.28 132.043H317.328C318.776 122.584 319.124 120.738 321.391 120.968C321.754 119.032 322.429 117.337 322.929 116.482C321.235 116.126 320.288 117.09 319.05 118.921C319.148 118.129 319.327 117.36 319.291 116.575H315.577Z" fill="#FFFFFE"/>
<path fill-rule="evenodd" clip-rule="evenodd" d="M311.889 131.866C310.507 132.292 309.172 132.493 307.762 132.492C303.259 132.489 300.913 130.122 300.913 125.592C300.913 120.302 303.898 116.409 307.949 116.409C311.268 116.409 313.384 118.589 313.384 122.01C313.384 123.144 313.237 124.25 312.889 125.813H304.881C304.609 128.057 306.037 128.993 308.375 128.993C309.814 128.993 311.113 128.693 312.558 128.018L311.889 131.866ZM309.629 122.693C309.65 122.37 310.054 119.932 307.756 119.932C306.476 119.932 305.56 120.917 305.187 122.693H309.629Z" fill="#FFFFFE"/>
<path fill-rule="evenodd" clip-rule="evenodd" d="M299.363 132.205C298.256 132.556 297.393 132.708 296.457 132.708C294.389 132.708 293.259 131.512 293.259 129.312C293.231 128.625 293.558 126.83 293.814 125.187C294.048 123.741 295.569 114.631 295.569 114.631H299.59L299.12 116.972H301.184L300.635 120.689H298.563C298.096 123.633 297.43 127.295 297.422 127.781C297.422 128.581 297.846 128.928 298.808 128.928C299.269 128.928 299.626 128.882 299.899 128.782L299.363 132.205Z" fill="#FFFFFE"/>
<path fill-rule="evenodd" clip-rule="evenodd" d="M283.599 121.645C283.599 123.604 284.543 124.95 286.681 125.966C288.319 126.741 288.572 126.97 288.572 127.673C288.572 128.637 287.85 129.072 286.249 129.072C285.041 129.072 283.919 128.884 282.623 128.463C282.623 128.463 282.093 131.872 282.068 132.033C282.987 132.236 283.808 132.42 286.278 132.492C290.547 132.492 292.519 130.857 292.519 127.322C292.519 125.196 291.693 123.949 289.667 123.013C287.971 122.227 287.776 122.054 287.776 121.331C287.776 120.494 288.448 120.064 289.756 120.064C290.549 120.064 291.634 120.153 292.663 120.299L293.239 116.712C292.191 116.545 290.603 116.409 289.677 116.409C285.152 116.409 283.586 118.788 283.599 121.645Z" fill="#FFFFFE"/>
<path fill-rule="evenodd" clip-rule="evenodd" d="M278.558 125.333C278.134 125.283 277.947 125.27 277.655 125.27C275.362 125.27 274.201 126.06 274.201 127.623C274.201 128.585 274.768 129.201 275.652 129.201C277.3 129.201 278.488 127.622 278.558 125.333ZM281.5 132.224C280.961 132.224 278.149 132.224 278.149 132.224L278.225 130.622C277.203 131.887 275.839 132.492 273.985 132.492C271.793 132.492 270.29 130.768 270.29 128.266C270.29 124.498 272.904 122.304 277.392 122.304C277.851 122.304 278.439 122.346 279.041 122.424C279.166 121.912 279.199 121.695 279.199 121.417C279.199 120.394 278.495 120.013 276.605 120.013C274.625 119.99 272.993 120.486 272.322 120.707C272.365 120.451 272.883 117.229 272.883 117.229C274.899 116.634 276.229 116.409 277.725 116.409C281.199 116.409 283.039 117.98 283.036 120.945C283.043 121.74 282.912 122.723 282.709 124.011C282.357 126.249 281.603 131.056 281.5 132.224Z" fill="#FFFFFE"/>
<path fill-rule="evenodd" clip-rule="evenodd" d="M268.256 132.465H264.211L266.529 117.844L261.354 132.465H258.597L258.256 117.929L255.82 132.465H252.033L255.196 113.446H261.014L261.176 125.22L265.102 113.446H271.385L268.256 132.465Z" fill="#FFFFFE"/>
<path fill-rule="evenodd" clip-rule="evenodd" d="M142.859 128.501C142.859 149.212 126.274 166 105.812 166C85.354 166 68.7678 149.212 68.7678 128.501C68.7678 107.789 85.354 91 105.812 91C126.274 91 142.859 107.789 142.859 128.501Z" fill="#6979FF"/>
<path fill-rule="evenodd" clip-rule="evenodd" d="M77.1779 152.314C76.155 151.058 75.213 149.732 74.3564 148.343H87.4857C88.2738 147.07 88.9852 145.744 89.6204 144.372H72.2228C71.6297 143.087 71.1033 141.762 70.6542 140.402H91.1861C92.4226 136.662 93.0907 132.662 93.0907 128.501C93.0907 125.776 92.8038 123.119 92.2593 120.56H69.5839C69.8708 119.207 70.2327 117.883 70.6589 116.589H91.1837C90.7335 115.229 90.2094 113.904 89.6169 112.619H72.2263C72.8616 111.247 73.5747 109.923 74.3605 108.648H87.4816C86.6256 107.262 85.6812 105.938 84.66 104.68H77.1826C78.3331 103.266 79.5832 101.94 80.9216 100.711C74.3458 94.6766 65.6195 91 56.0471 91C35.5861 91 19 107.789 19 128.501C19 149.212 35.5861 166 56.0471 166C65.6201 166 74.3476 162.325 80.9216 156.292C82.2618 155.061 83.5136 153.731 84.6641 152.314H77.1779Z" fill="#6979FF"/>
<path fill-rule="evenodd" clip-rule="evenodd" d="M137.857 149.102C137.857 148.434 138.393 147.891 139.054 147.891C139.715 147.891 140.25 148.434 140.25 149.102C140.25 149.771 139.715 150.314 139.054 150.314C138.393 150.314 137.857 149.771 137.857 149.102ZM139.054 150.023C139.556 150.023 139.964 149.611 139.964 149.102C139.964 148.594 139.556 148.184 139.054 148.184C138.552 148.184 138.144 148.594 138.144 149.102C138.144 149.611 138.552 150.023 139.054 150.023ZM138.892 149.634H138.647V148.569H139.091C139.183 148.569 139.278 148.57 139.36 148.624C139.445 148.683 139.493 148.786 139.493 148.889C139.493 149.011 139.423 149.122 139.311 149.164L139.504 149.634H139.232L139.072 149.214H138.892V149.634ZM138.892 149.032H139.027C139.078 149.032 139.132 149.035 139.177 149.012C139.218 148.984 139.239 148.935 139.239 148.888C139.239 148.849 139.213 148.801 139.18 148.78C139.136 148.755 139.068 148.76 139.023 148.76H138.892V149.032Z" fill="#D82332"/>
<path fill-rule="evenodd" clip-rule="evenodd" d="M125.157 129.814C125.157 133.32 123.736 135.395 121.492 135.395C119.857 135.419 118.865 134.032 118.865 131.953C118.865 129.49 120.312 126.707 122.637 126.707C124.513 126.707 125.157 128.212 125.157 129.814ZM130.105 129.912C130.105 126.031 127.586 123.001 122.841 123.001C117.382 123.001 113.852 126.684 113.852 132.109C113.852 135.992 115.934 139.169 121.107 139.169C126.326 139.169 130.105 136.348 130.105 129.912Z" fill="#8B97C4"/>
<path fill-rule="evenodd" clip-rule="evenodd" d="M105.927 123.172C105.344 127.983 104.312 132.861 103.507 137.682L103.312 138.732H107.943C109.611 129.421 110.172 126.77 113.669 127.703L115.351 123.298C112.911 122.392 111.341 123.686 109.921 125.525C110.049 124.697 110.29 123.898 110.232 123.172H105.927Z" fill="#8B97C4"/>
<path fill-rule="evenodd" clip-rule="evenodd" d="M102.084 138.473C100.821 138.823 99.8352 138.976 98.7702 138.976C96.4106 138.976 95.1219 137.755 95.1219 135.581C95.0481 134.984 95.6243 132.225 95.7554 131.456C95.8854 130.685 97.9294 119.446 97.9294 119.446H102.514L101.821 123.165H104.172L103.533 126.959H101.172C101.172 126.959 99.8756 133.548 99.8756 134.051C99.8756 134.849 100.353 135.197 101.451 135.197C101.976 135.197 102.382 135.147 102.695 135.052L102.084 138.473Z" fill="#8B97C4"/>
<path fill-rule="evenodd" clip-rule="evenodd" d="M83.4253 128.272C83.4253 130.236 84.5178 131.594 87.0015 132.604C88.9009 133.391 89.1995 133.619 89.1995 134.323C89.1995 135.298 88.3611 135.744 86.498 135.733C85.0992 135.722 83.8222 135.55 82.3157 135.128L81.6488 138.711C82.9885 139.026 84.8662 139.129 86.5308 139.168C91.4894 139.168 93.7787 137.525 93.7787 133.972C93.7787 131.837 92.8238 130.581 90.4689 129.645C88.5004 128.848 88.2697 128.677 88.2697 127.956C88.2697 127.109 89.0496 126.681 90.5702 126.681C91.4923 126.681 92.7541 126.767 93.952 126.914L94.6236 123.311C93.4034 123.139 91.5526 123.001 90.4806 123.001C85.2274 123.001 83.4095 125.396 83.4253 128.272Z" fill="#8B97C4"/>
<path fill-rule="evenodd" clip-rule="evenodd" d="M80.7677 138.542C79.1845 138.966 77.6534 139.173 76.035 139.17C70.8715 139.165 68.1823 136.784 68.1823 132.232C68.1823 126.914 71.6057 123.001 76.2529 123.001C80.0539 123.001 82.4803 125.195 82.4803 128.631C82.4803 129.771 82.3163 130.883 81.9141 132.453H72.7316C72.4049 134.677 74.0086 135.653 76.7388 135.653C78.3741 135.653 79.8525 135.355 81.4908 134.688L80.7677 138.542ZM78.2985 129.316C78.2985 128.981 78.809 126.594 76.1514 126.542C74.6842 126.542 73.632 127.53 73.2064 129.316H78.2985Z" fill="#8B97C4"/>
<path fill-rule="evenodd" clip-rule="evenodd" d="M65.2307 138.913H61.3787L61.4706 137.28C60.2961 138.568 58.7311 139.169 56.608 139.169C54.0951 139.169 52.3737 137.429 52.3737 134.928C52.3737 131.126 55.3662 128.932 60.5116 128.932C61.0409 128.932 61.713 128.973 62.4039 129.051C62.5468 128.542 62.5854 128.323 62.5854 128.046C62.5854 127.006 61.7757 126.623 59.6105 126.623C57.4758 126.631 56.0354 126.951 54.6987 127.315L55.3568 123.826C57.6684 123.231 59.1813 123.001 60.8939 123.001C64.8783 123.001 66.9826 124.583 66.9826 127.555C67.0159 128.349 66.7437 129.94 66.6061 130.637C66.4503 131.65 65.3461 137.526 65.2307 138.913ZM61.8494 131.976C61.3617 131.927 61.1491 131.912 60.8148 131.912C58.1877 131.912 56.8556 132.704 56.8556 134.267C56.8556 135.248 57.5055 135.862 58.5191 135.862C60.4067 135.862 61.7698 134.263 61.8494 131.976Z" fill="#8B97C4"/>
<path fill-rule="evenodd" clip-rule="evenodd" d="M50.2108 139.051H45.5988L48.3396 124.435L42.0296 139.051H37.8263L37.0575 124.52L34.308 139.051H30.1246L33.6879 120.038H40.8943L41.4945 130.637L46.0602 120.038H53.8456L50.2108 139.051Z" fill="#8B97C4"/>
<path fill-rule="evenodd" clip-rule="evenodd" d="M130.246 136.656C130.246 135.988 130.781 135.446 131.442 135.446C132.103 135.446 132.639 135.988 132.639 136.656C132.639 137.326 132.103 137.869 131.442 137.869C130.781 137.869 130.246 137.326 130.246 136.656ZM131.442 137.578C131.945 137.578 132.352 137.165 132.352 136.656C132.352 136.148 131.945 135.737 131.442 135.737C130.94 135.737 130.532 136.148 130.532 136.656C130.532 137.165 130.94 137.578 131.442 137.578ZM131.281 137.188H131.035V136.126H131.48C131.572 136.126 131.667 136.126 131.749 136.179C131.833 136.237 131.881 136.339 131.881 136.444C131.881 136.565 131.812 136.677 131.699 136.719L131.893 137.188H131.62L131.46 136.768H131.281V137.188ZM131.281 136.586H131.416C131.467 136.586 131.521 136.589 131.566 136.565C131.605 136.538 131.627 136.491 131.627 136.442C131.627 136.401 131.602 136.355 131.568 136.335C131.525 136.308 131.457 136.315 131.411 136.315H131.281V136.586Z" fill="#FFFFFE"/>
<path fill-rule="evenodd" clip-rule="evenodd" d="M126.327 128.629C126.327 132.135 124.907 134.21 122.663 134.21C121.027 134.234 120.036 132.847 120.036 130.768C120.036 128.304 121.483 125.521 123.807 125.521C125.684 125.521 126.327 127.027 126.327 128.629ZM131.276 128.727C131.276 124.846 128.756 121.816 124.012 121.816C118.553 121.816 115.022 125.499 115.022 130.924C115.022 134.807 117.104 137.984 122.278 137.984C127.497 137.984 131.276 135.162 131.276 128.727Z" fill="#FFFFFE"/>
<path fill-rule="evenodd" clip-rule="evenodd" d="M107.098 121.987C106.515 126.798 105.484 131.676 104.678 136.496L104.484 137.546H109.114C110.782 128.236 111.343 125.584 114.84 126.517L116.522 122.112C114.082 121.206 112.513 122.501 111.092 124.339C111.22 123.512 111.461 122.713 111.403 121.987H107.098Z" fill="#FFFFFE"/>
<path fill-rule="evenodd" clip-rule="evenodd" d="M103.255 137.288C101.991 137.639 101.006 137.791 99.9403 137.791C97.5807 137.791 96.2932 136.57 96.2932 134.396C96.2183 133.799 96.795 131.04 96.9256 130.271C97.0567 129.5 99.1007 118.26 99.1007 118.26H103.685L102.992 121.978H105.343L104.704 125.775H102.343C102.343 125.775 101.046 132.362 101.046 132.864C101.046 133.665 101.525 134.01 102.622 134.01C103.147 134.01 103.552 133.963 103.867 133.867L103.255 137.288Z" fill="#FFFFFE"/>
<path fill-rule="evenodd" clip-rule="evenodd" d="M84.5975 127.084C84.5975 129.05 85.6895 130.407 88.1732 131.418C90.0732 132.206 90.3712 132.433 90.3712 133.135C90.3712 134.112 89.5322 134.559 87.6709 134.547C86.2703 134.537 84.9933 134.364 83.488 133.942L82.82 137.524C84.1602 137.84 86.0391 137.943 87.7019 137.982C92.6605 137.982 94.951 136.339 94.951 132.785C94.951 130.651 93.9955 129.394 91.6406 128.459C89.6721 127.663 89.4408 127.489 89.4408 126.77C89.4408 125.923 90.2219 125.495 91.7419 125.495C92.664 125.495 93.9252 125.582 95.1237 125.728L95.7953 122.125C94.5751 121.952 92.7243 121.816 91.6534 121.816C86.3991 121.816 84.5812 124.208 84.5975 127.084Z" fill="#FFFFFE"/>
<path fill-rule="evenodd" clip-rule="evenodd" d="M81.9374 137.356C80.3553 137.781 78.8237 137.987 77.2059 137.984C72.0424 137.98 69.3532 135.599 69.3532 131.046C69.3532 125.728 72.776 121.816 77.4226 121.816C81.2242 121.816 83.6511 124.009 83.6511 127.445C83.6511 128.586 83.4866 129.694 83.085 131.268H73.9031C73.5758 133.489 75.1783 134.467 77.9085 134.467C79.5438 134.467 81.0234 134.169 82.6611 133.501L81.9374 137.356ZM79.4682 128.13C79.4682 127.795 79.9793 125.408 77.3223 125.355C75.8556 125.355 74.8029 126.343 74.3761 128.13H79.4682Z" fill="#FFFFFE"/>
<path fill-rule="evenodd" clip-rule="evenodd" d="M66.4028 137.727H62.5496L62.6427 136.094C61.4676 137.381 59.9037 137.981 57.7801 137.981C55.2677 137.981 53.5446 136.242 53.5446 133.741C53.5446 129.94 56.5377 127.746 61.6831 127.746C62.2118 127.746 62.884 127.787 63.576 127.864C63.7189 127.355 63.7569 127.137 63.7569 126.861C63.7569 125.819 62.9478 125.436 60.7832 125.436C58.6478 125.446 57.2075 125.766 55.8714 126.129L56.5277 122.64C58.8399 122.045 60.3522 121.816 62.066 121.816C66.0504 121.816 68.1541 123.397 68.1541 126.369C68.1886 127.163 67.9146 128.753 67.7788 129.451C67.6213 130.464 66.5176 136.341 66.4028 137.727ZM63.0209 130.791C62.5338 130.74 62.3207 130.727 61.9857 130.727C59.3598 130.727 58.0272 131.517 58.0272 133.079C58.0272 134.061 58.6782 134.676 59.69 134.676C61.5788 134.676 62.9419 133.076 63.0209 130.791Z" fill="#FFFFFE"/>
<path fill-rule="evenodd" clip-rule="evenodd" d="M51.3823 137.866H46.7715L49.5117 123.25L43.2011 137.866H38.9972L38.229 123.335L35.4795 137.866H31.2955L34.8589 118.853H42.0664L42.447 130.624L47.5198 118.853H55.0171L51.3823 137.866Z" fill="#FFFFFE"/>
</svg>
