<svg width="24" height="24" viewBox="0 0 24 24" fill="none" xmlns="http://www.w3.org/2000/svg">
<path d="M22.9734 18.3987L22.8524 18.049C22.5832 17.237 21.7005 16.398 20.8777 16.17L17.8423 15.3449C17.0215 15.1203 15.8478 15.4224 15.2493 16.0272L14.143 17.1213C10.1617 16.047 7.03687 12.9147 5.96115 8.93136L7.05431 7.83392C7.65153 7.23239 7.95232 6.06086 7.73436 5.23471L6.90404 2.20728C6.68274 1.38344 5.83575 0.495239 5.03493 0.217035L4.68823 0.107036C3.88381 -0.169629 2.71783 0.110369 2.12702 0.712931L0.473558 2.35549C0.189177 2.64754 0.00147106 3.47676 0.00147106 3.48138C-0.0628927 8.69289 1.98726 13.7147 5.67677 17.3993C9.35525 21.0775 14.3536 23.1221 19.5424 23.0762C19.5752 23.0762 20.4307 22.8877 20.7294 22.5977L22.3665 20.9564C22.9735 20.3559 23.2407 19.2028 22.9734 18.3987Z" fill="#374CFF"/>
</svg>
