<svg width="30" height="30" viewBox="0 0 30 30" fill="none" xmlns="http://www.w3.org/2000/svg">
<path fill-rule="evenodd" clip-rule="evenodd" d="M12.1784 24.3567C5.45243 24.3567 0 18.9043 0 12.1784C0 5.45243 5.45243 0 12.1784 0C18.9043 0 24.3567 5.45243 24.3567 12.1784C24.3567 14.9927 23.4021 17.5841 21.7989 19.6463L29.9998 27.8471L27.8469 30L19.6461 21.7991C17.5839 23.4021 14.9926 24.3567 12.1784 24.3567ZM21.3119 12.1782C21.3119 17.2227 17.2226 21.312 12.1781 21.312C7.13369 21.312 3.04436 17.2227 3.04436 12.1782C3.04436 7.1338 7.13369 3.04447 12.1781 3.04447C17.2226 3.04447 21.3119 7.1338 21.3119 12.1782Z" fill="#F35E3F"/>
</svg>
