<svg width="129" height="155" viewBox="0 0 129 155" fill="none" xmlns="http://www.w3.org/2000/svg">
<path d="M40.7513 52.3334C40.3282 52.6128 39.9647 52.9732 39.6816 53.3938C39.3986 53.8145 39.2017 54.287 39.1023 54.7841C39.0029 55.2813 39.0029 55.7932 39.1023 56.2903C39.2018 56.7875 39.3988 57.26 39.6818 57.6806C44.0676 64.2139 46.4059 71.9065 46.3979 79.7753C46.4009 86.3713 44.7656 92.8647 41.6389 98.6724C41.151 99.5701 41.0398 100.625 41.3296 101.605C41.6194 102.584 42.2865 103.409 43.1842 103.897C44.0819 104.384 45.1367 104.496 46.1164 104.206C47.0961 103.916 47.9206 103.249 48.4085 102.351C52.1679 95.4047 54.1379 87.6312 54.1407 79.7325C54.1357 70.3503 51.3319 61.1827 46.0878 53.4028C45.8084 52.9812 45.4485 52.619 45.0288 52.3369C44.609 52.0549 44.1376 51.8585 43.6418 51.7591C43.1459 51.6597 42.6353 51.6593 42.1392 51.7579C41.6432 51.8564 41.1715 52.052 40.7513 52.3334Z" fill="#02033D"/>
<path d="M60.1831 35.4148C59.3355 35.9847 58.7474 36.8666 58.5471 37.8681C58.3468 38.8697 58.5504 39.9099 59.1136 40.762C67.1222 52.6653 71.3902 66.6906 71.3695 81.0373C71.3742 93.0888 68.371 104.951 62.6321 115.548C62.3905 115.996 62.2394 116.486 62.1874 116.992C62.1355 117.497 62.1836 118.008 62.3291 118.496C62.6229 119.479 63.2955 120.306 64.1988 120.794C65.1022 121.282 66.1624 121.391 67.1461 121.097C68.1299 120.803 68.9566 120.13 69.4445 119.227C75.7768 107.495 79.0849 94.3693 79.0695 81.0373C79.0942 65.161 74.3758 49.6394 65.5196 36.4628C65.2386 36.0429 64.8774 35.6827 64.4569 35.4026C64.0363 35.1226 63.5647 34.9284 63.0689 34.831C62.5731 34.7336 62.063 34.7351 61.5678 34.8353C61.0726 34.9354 60.602 35.1324 60.1831 35.4148Z" fill="#02033D"/>
<path d="M79.6149 18.5389C79.1929 18.8193 78.8305 19.1801 78.5483 19.6008C78.266 20.0215 78.0696 20.4938 77.9703 20.9905C77.8709 21.4873 77.8706 21.9988 77.9693 22.4957C78.068 22.9925 78.2638 23.4651 78.5454 23.8861C90.1677 41.1632 96.361 61.5196 96.3303 82.342C96.3323 99.8343 91.973 117.051 83.6467 132.435C83.3748 132.88 83.1964 133.377 83.1222 133.893C83.0481 134.41 83.0798 134.936 83.2154 135.44C83.3511 135.944 83.5878 136.416 83.9112 136.825C84.2346 137.235 84.638 137.575 85.0968 137.824C85.5555 138.073 86.0602 138.226 86.5799 138.274C87.0997 138.322 87.6238 138.263 88.1204 138.102C88.6169 137.941 89.0756 137.681 89.4684 137.337C89.8613 136.994 90.1801 136.574 90.4056 136.103C99.3507 119.596 104.034 101.117 104.03 82.342C104.065 59.99 97.4213 38.1372 84.9514 19.587C84.6704 19.1671 84.3092 18.8068 83.8887 18.5268C83.4681 18.2468 82.9965 18.0525 82.5007 17.9551C82.0049 17.8578 81.4948 17.8592 80.9996 17.9594C80.5044 18.0596 80.0338 18.2565 79.6149 18.5389Z" fill="#02033D"/>
<path d="M104.383 2.70046C103.816 1.84956 102.934 1.25885 101.931 1.05829C100.928 0.857734 99.8869 1.06375 99.036 1.63102C98.1851 2.19829 97.5944 3.08034 97.3938 4.08314C97.1933 5.08594 97.3993 6.12734 97.9665 6.97824C113.204 29.6318 121.319 56.3241 121.27 83.6253C121.272 106.557 115.552 129.126 104.629 149.289C104.143 150.187 104.033 151.241 104.324 152.22C104.615 153.199 105.282 154.022 106.18 154.508C106.739 154.818 107.369 154.98 108.009 154.979C108.702 154.98 109.384 154.794 109.98 154.44C110.577 154.086 111.067 153.578 111.399 152.968C117.065 142.545 121.425 131.465 124.382 119.976C127.437 108.097 128.979 95.8799 128.97 83.6146C129.013 54.7969 120.452 26.6223 104.383 2.70046Z" fill="#02033D"/>
<path d="M18.9774 73.2731V61.2419C21.0521 62.6215 21.4906 64.9315 23.7471 64.9315C24.1716 64.9433 24.5941 64.8683 24.9887 64.7113C25.3833 64.5542 25.7417 64.3183 26.042 64.018C26.3423 63.7177 26.5782 63.3593 26.7352 62.9647C26.8923 62.5701 26.9672 62.1477 26.9554 61.7231C26.9504 61.129 26.7998 60.5452 26.517 60.0227C24.8678 57.2126 22.1784 55.1648 19.0308 54.3226V52.4724C19.0308 52.0511 18.9479 51.6339 18.7866 51.2447C18.6254 50.8554 18.3891 50.5017 18.0911 50.2038C17.7932 49.9059 17.4395 49.6696 17.0503 49.5083C16.661 49.3471 16.2438 49.2641 15.8225 49.2641C15.4012 49.2641 14.984 49.3471 14.5947 49.5083C14.2055 49.6696 13.8518 49.9059 13.5539 50.2038C13.256 50.5017 13.0196 50.8554 12.8584 51.2447C12.6972 51.6339 12.6142 52.0511 12.6142 52.4724V54.344C9.92311 55.0394 7.54119 56.6132 5.84606 58.8159C4.15092 61.0186 3.23959 63.7241 3.25653 66.5035C3.29181 69.2517 4.2225 71.9133 5.90741 74.0846C7.59233 76.2558 9.93949 77.8183 12.5928 78.5348V95.571C7.76959 94.8224 7.07445 90.3094 4.13348 90.3094C3.71796 90.2944 3.30381 90.3652 2.91688 90.5174C2.52994 90.6696 2.1785 90.8999 1.8845 91.1939C1.59049 91.4879 1.36022 91.8393 1.20804 92.2262C1.05586 92.6132 0.985046 93.0273 1.00001 93.4429C0.977965 94.165 1.20029 94.8734 1.63098 95.4534C2.87545 97.2756 4.49953 98.807 6.39169 99.9423C8.28386 101.078 10.3993 101.79 12.5928 102.03V103.528C12.5928 104.379 12.9308 105.195 13.5325 105.796C14.1342 106.398 14.9502 106.736 15.8011 106.736C16.652 106.736 17.4681 106.398 18.0698 105.796C18.6714 105.195 19.0095 104.379 19.0095 103.528V101.282C21.8907 100.243 24.3815 98.341 26.142 95.8348C27.9026 93.3286 28.8473 90.3403 28.8473 87.2775C28.8473 84.2147 27.9026 81.2265 26.142 78.7203C24.3815 76.214 21.8907 74.3119 19.0095 73.2731H18.9774ZM12.5607 71.6369C11.6636 71.0822 10.9227 70.308 10.4081 69.3873C9.89349 68.4666 9.62215 67.4299 9.61973 66.3752C9.60469 65.3258 9.86916 64.2914 10.386 63.378C10.9028 62.4646 11.6534 61.7052 12.5607 61.1777V71.6369ZM18.9774 94.0952V80.417C20.0599 81.1743 20.9381 82.1879 21.5334 83.3673C22.1287 84.5467 22.4226 85.8552 22.3889 87.1759C22.3889 90.5019 21.4264 92.0633 18.9774 94.138V94.0952Z" fill="#F24823"/>
</svg>
