<svg width="152" height="140" viewBox="0 0 152 140" fill="none" xmlns="http://www.w3.org/2000/svg">
<g clip-path="url(#clip0)">
<path d="M140 0H11.0636C8.06841 0.0709449 5.22315 1.32493 3.14994 3.48778C1.07672 5.65064 -0.0557969 8.54638 1.61554e-05 11.5419V101.901C-0.0557372 104.9 1.07962 107.799 3.15731 109.963C5.23499 112.126 8.08556 113.378 11.0844 113.443H58.2294V122.427H40.8853C35.5615 122.427 32.5669 129.872 32.5669 133.72C32.5669 139.958 38.8057 139.958 40.8853 139.958H110.22C112.299 139.958 118.434 139.958 118.434 133.72C118.434 129.872 115.544 122.427 110.22 122.427H92.9174V113.485H140C141.488 113.452 142.956 113.127 144.319 112.527C145.681 111.928 146.913 111.065 147.942 109.99C148.971 108.914 149.779 107.646 150.318 106.258C150.857 104.87 151.118 103.39 151.084 101.901V11.5419C151.14 8.54286 150.005 5.64403 147.927 3.48058C145.849 1.31714 142.999 0.0655268 140 0V0ZM89.2781 129.747H109.638C110.273 130.644 110.732 131.653 110.989 132.721H40.0951C40.3478 131.652 40.8069 130.641 41.4468 129.747H61.8063C62.7715 129.747 63.6972 129.364 64.3797 128.682C65.0622 127.999 65.4456 127.073 65.4456 126.108V113.485H85.6387V126.108C85.6387 127.073 86.0222 127.999 86.7047 128.682C87.3872 129.364 88.3129 129.747 89.2781 129.747ZM143.806 101.901C143.809 102.946 143.42 103.954 142.715 104.724C142.01 105.495 141.041 105.972 140 106.061H11.0636C10.0266 105.967 9.06247 105.488 8.36169 104.718C7.66091 103.948 7.27446 102.943 7.27868 101.901V11.5419C7.2749 10.4974 7.66425 9.48972 8.36935 8.71912C9.07444 7.94852 10.0437 7.47143 11.0844 7.38265H140.021C141.08 7.47255 142.064 7.96437 142.772 8.75716C143.479 9.54996 143.857 10.5836 143.827 11.6459L143.806 101.901Z" fill="#02033D"/>
<path d="M46.9374 42.757L51.6374 47.4361L55.4223 43.6512L46.9374 35.1664L26.7651 55.3595L30.55 59.1444L46.9374 42.757Z" fill="#F24823"/>
<path d="M115.274 22.4391H103.212C102.544 22.4981 101.922 22.8051 101.469 23.2998C101.016 23.7944 100.765 24.4407 100.765 25.1114C100.765 25.782 101.016 26.4284 101.469 26.923C101.922 27.4177 102.544 27.7247 103.212 27.7837H108.765L87.9683 48.5799L71.9137 32.5252L26.7651 77.6738L30.55 81.4587L71.9345 40.0743L87.9891 56.1497L112.591 31.5478V37.1628C112.558 37.5335 112.603 37.907 112.722 38.2596C112.842 38.6121 113.033 38.9359 113.285 39.2104C113.536 39.4849 113.842 39.7041 114.182 39.8541C114.523 40.004 114.891 40.0815 115.263 40.0815C115.636 40.0815 116.004 40.004 116.344 39.8541C116.685 39.7041 116.991 39.4849 117.242 39.2104C117.493 38.9359 117.685 38.6121 117.804 38.2596C117.924 37.907 117.968 37.5335 117.936 37.1628V25.1218C117.938 24.7705 117.872 24.4221 117.739 24.0967C117.606 23.7714 117.411 23.4755 117.163 23.2261C116.916 22.9767 116.622 22.7788 116.297 22.6437C115.973 22.5086 115.625 22.4391 115.274 22.4391Z" fill="#F24823"/>
<path d="M115.274 51.0132H103.212C102.544 51.0722 101.922 51.3792 101.469 51.8739C101.016 52.3685 100.765 53.0148 100.765 53.6855C100.765 54.3561 101.016 55.0025 101.469 55.4971C101.922 55.9917 102.544 56.2988 103.212 56.3578H108.744L88.4465 76.6757L64.5725 52.8017L60.7876 56.5866L88.4465 84.2455L112.591 60.1011V65.7369C112.558 66.1076 112.603 66.4811 112.722 66.8336C112.842 67.1862 113.033 67.51 113.285 67.7845C113.536 68.059 113.842 68.2782 114.182 68.4281C114.523 68.5781 114.891 68.6556 115.263 68.6556C115.635 68.6556 116.004 68.5781 116.344 68.4281C116.685 68.2782 116.991 68.059 117.242 67.7845C117.493 67.51 117.685 67.1862 117.804 66.8336C117.924 66.4811 117.968 66.1076 117.936 65.7369V53.6959C117.938 53.3446 117.871 52.9962 117.739 52.6708C117.606 52.3455 117.411 52.0496 117.163 51.8002C116.916 51.5508 116.621 51.3529 116.297 51.2178C115.973 51.0827 115.625 51.0132 115.274 51.0132Z" fill="#F24823"/>
<path d="M13.4761 97.6173H137.609V12.1865H13.4761V97.6173ZM18.7167 17.3856H132.41V92.4182H18.7167V17.3856Z" fill="#02033D"/>
</g>
<defs>
<clipPath id="clip0">
<rect width="151.084" height="140" fill="white"/>
</clipPath>
</defs>
</svg>
